/* XPM */
static char *result[] = {
/* columns rows colors chars-per-pixel */
"70 70 231 2 ",
"   c #0B0B0A",
".  c #0A0604",
"X  c #1D0900",
"o  c #120906",
"O  c #0D1112",
"+  c #181818",
"@  c #0C0F10",
"#  c #22140B",
"$  c #2A1306",
"%  c #391704",
"&  c #25150A",
"*  c #342418",
"=  c #26241B",
"-  c #162223",
";  c #182728",
":  c #113636",
">  c #193838",
",  c #0D2323",
"<  c #2E2A2B",
"1  c #242121",
"2  c #2A3738",
"3  c #363737",
"4  c #2F2D29",
"5  c #471C04",
"6  c #541F00",
"7  c #562000",
"8  c #5B2506",
"9  c #492109",
"0  c #632401",
"q  c #6A2600",
"w  c #6E2800",
"e  c #652E0F",
"r  c #752E05",
"t  c #772F07",
"y  c #763008",
"u  c #7A3109",
"i  c #7B3107",
"p  c #6C3A1A",
"a  c #7D3913",
"s  c #602C12",
"d  c #513B2D",
"f  c #693E29",
"g  c #714A32",
"h  c #7F411E",
"j  c #1C5A5B",
"k  c #1C4949",
"l  c #2D4145",
"z  c #284548",
"x  c #354749",
"c  c #26595B",
"v  c #3B5559",
"b  c #2D4F51",
"n  c #265F61",
"m  c #1E6364",
"M  c #266566",
"N  c #297475",
"B  c #30706F",
"V  c #454645",
"C  c #43585A",
"Z  c #565553",
"A  c #6F594B",
"S  c #696859",
"D  c #6F6B5A",
"F  c #48666A",
"G  c #53747A",
"H  c #5C777B",
"J  c #526B70",
"K  c #6C7471",
"L  c #81350B",
"P  c #86390D",
"I  c #8B3B0E",
"U  c #803710",
"Y  c #843A13",
"T  c #8A3D14",
"R  c #873F19",
"E  c #883F19",
"W  c #8C411A",
"Q  c #9C4617",
"!  c #92421A",
"~  c #9D4718",
"^  c #9E4919",
"/  c #944113",
"(  c #A04919",
")  c #A84E1D",
"_  c #AF511F",
"`  c #884926",
"'  c #924621",
"]  c #934823",
"[  c #9C4A22",
"{  c #994D29",
"}  c #934E2B",
"|  c #9E512E",
" . c #975837",
".. c #885537",
"X. c #A24E23",
"o. c #A4522A",
"O. c #A95428",
"+. c #B85B28",
"@. c #A55836",
"#. c #AD5E3C",
"$. c #A55836",
"%. c #B25D37",
"&. c #AD603E",
"*. c #B7623B",
"=. c #C35E28",
"-. c #C56738",
";. c #D36931",
":. c #D96F37",
">. c #D96F38",
",. c #DF7137",
"<. c #D9713B",
"1. c #D6733E",
"2. c #CE662E",
"3. c #E17137",
"4. c #EB793D",
"5. c #E37439",
"6. c #935E47",
"7. c #855C49",
"8. c #9A6448",
"9. c #9D6D52",
"0. c #AC6343",
"q. c #A76648",
"w. c #B66645",
"e. c #B86746",
"r. c #BA6947",
"t. c #BA6948",
"y. c #B36B4B",
"u. c #AC7559",
"i. c #BB7253",
"p. c #B8765A",
"a. c #B16F4F",
"s. c #B47D65",
"d. c #C46C46",
"f. c #CC6E46",
"g. c #C46E48",
"h. c #C86F48",
"j. c #D16F45",
"k. c #CB714A",
"l. c #C87148",
"z. c #D37246",
"x. c #DC7646",
"c. c #DE7946",
"v. c #D47449",
"b. c #D87548",
"n. c #DA7B4B",
"m. c #C67957",
"M. c #D17C55",
"N. c #E37945",
"B. c #E97D47",
"V. c #E27C49",
"C. c #E77C47",
"Z. c #F17D41",
"A. c #C17E61",
"S. c #B68A76",
"D. c #BB8A73",
"F. c #DC865B",
"G. c #CD805F",
"H. c #E3804E",
"J. c #F68246",
"K. c #F88346",
"L. c #E78553",
"P. c #C98568",
"I. c #DB8D65",
"U. c #C88D75",
"Y. c #CD9278",
"T. c #D69170",
"R. c #F0986B",
"E. c #2F7F80",
"W. c #4F7B81",
"Q. c #587D84",
"!. c #329899",
"~. c #2E8D8E",
"^. c #39A6A7",
"/. c #34B1B2",
"(. c #3CB9BA",
"). c #3EADB0",
"_. c #518C92",
"`. c #678D94",
"'. c #6C959D",
"]. c #69949A",
"[. c #6C8485",
"{. c #6B9AA2",
"}. c #6A99A1",
"|. c #779FA6",
" X c #43A6A9",
".X c #5AB8BB",
"XX c #4BB3B6",
"oX c #68A0A7",
"OX c #66A5AC",
"+X c #68A2AA",
"@X c #66A9AF",
"#X c #68A8AF",
"$X c #65ADB3",
"%X c #62B5BB",
"&X c #61B9BF",
"*X c #67B3B9",
"=X c #7BA0A7",
"-X c #589EA4",
";X c #5CBEC3",
":X c #61BCC2",
">X c #73BBC1",
",X c #3DC7C7",
"<X c #46C7C9",
"1X c #5BC7CB",
"2X c #5BCED2",
"3X c #46D5D7",
"4X c #5AD2D6",
"5X c #59D6D9",
"6X c #56DADD",
"7X c #59DBDE",
"8X c #57D6DA",
"9X c #40CED0",
"0X c #60C2C7",
"qX c #70D4D7",
"wX c #59DDE1",
"eX c #43DFE0",
"rX c #48EDED",
"tX c #49E3E4",
"yX c #55E2E4",
"uX c #53EAEC",
"iX c #56E3E6",
"pX c #4BF1F2",
"aX c #51F3F5",
"sX c #51F8F9",
"dX c #70EAEB",
"fX c #919394",
"gX c #BA9887",
"hX c #87A8AE",
"jX c #BEA090",
"kX c #83D4D7",
"lX c None",
/* pixels */
"lXlXlXlXlXlXlXlXlXlXlXlXlXlXlXlXlXlXlXlXlXlXlXlXlXlXlXlXlXlXlXlXlXlXlXlXlXlXlXlXlXlXlXlXlXlXlXlXlXlXlXlXlXlXlXlXlXlXlXlXlXlXlXlXlXlXlXlXlXlX",
"lXlXlXlXlXlXlXlXlXlXlXlXlXlXlXlXlXlXlXlXlXlXlXlXlXlXlXlXlXlXlXlXlXlXlXlXlXlXlXlXlXlXlXlXlXlXlXlXlXlXlXlXlXlXlXlXlXlXlXlXlXlXlXlXlXlXlXlXlXlX",
"lXlXlXlXlXlXlXlXlXlXlXlXlXlXlXlXlXlXlXlXlXlXlXlXlXlXlXlXlXlXlXlXlXlXlXlXlXlXlXlXlXlXlXlXlXlXlXlXlXlXlXlXlXlXlXlXlXlXlXlXlXlXlXlXlXlXlXlXlXlX",
"lXlXlXlXlXlXlXlXlXlXlXlXlXlXlXlXlXlXlXlXlXlXlXlXlXlXlXlXlXlXlXlXlXlXlXlXlXlXlXlXlXlXlXlXlXlXlXlXlXlXlXlXlXlXlXlXlXlXlXlXlXlXlXlXlXlXlXlXlXlX",
"lXlXlXlXlXlXlXlXlXlXlXlXlXlXlXlXlXlXlXlXlXlXlXlXlXlXlXlXlXlXlXlXlXlXlXlXlXlXlXlXlXlXlXlXlXlXlXlXlXlXlXlXlXlXlXlXlXlXlXlXlXlXlXlXlXlXlXlXlXlX",
"lXlXlXlXlXlXlXlXlXlXlXlXlXlXlXlXlXlXlXlXlXlXlXlXlXlXlXlX2 - - - - - - - - - ; lXlXlXlXlXlXlXlXlXlXlXlXlXlXlXlXlXlXlXlXlXlXlXlXlXlXlXlXlXlXlX",
"lXlXlXlXlXlXlXlXlXlXlXlXlXlXlXlXlXlXlXlXlXlXlXlX2 - - ; !.<X(.(.XX(.(.(.(.(.(.M - - ; lXlXlXlXlXlXlXlXlXlXlXlXlXlXlXlXlXlXlXlXlXlXlXlXlXlXlX",
"lXlXlXlXlXlXlXlXlXlXlXlXlXlXlXlXlXlXlXlXlX> ; : ^.<X,X<XtXiX%X$X$X%X$X$X*X0XaX3X,X<X<XN - > lXlXlXlXlXlXlXlXlXlXlXlXlXlXlXlXlXlXlXlXlXlXlXlX",
"lXlXlXlXlXlXlXlXlXlXlXlXlXlXlXlXlXlXlX> : !.3X<X$X#X#X$XoX;XuXOX'.'.'.'.0XiX$X#X#X#X#X.X9X,XB F H lXlXlXlXlXlXlXlXlXlXlXlXlXlXlXlXlXlXlXlXlX",
"lXlXlXlXlXlXlXlXlXlXlXlXlXlXlXlX> : N 3X3XtXwX%X}.'.'.{.}.$X9X_.Q.Q.Q.Q. X9X{.}.'.'.'.#X1XrX3XwX1Xk : > lXlXlXlXlXlXlXlXlXlXlXlXlXlXlXlXlXlX",
"lXlXlXlXlXlXlXlXlXlXlXlXlXlXz M 3X3X;X{.{.{.*X7X;X].G G G C = # + # & # # < J W.G W.OX2X4X{.oXoXOX<XtX/.k lXlXlXlXlXlXlXlXlXlXlXlXlXlXlXlXlX",
"lXlXlXlXlXlXlXlXlXlXlXlXlXk ~.6XyX1X$X].'.{.].W.).N # # # % 0 q w q q q q 8 & # # ; ^._.[.'.'.'.{.%X7XiX<XM z lXlXlXlXlXlXlXlXlXlXlXlXlXlXlX",
"lXlXlXlXlXlXlXlXlXlXlXb c XX;X}.{.1X2X.XG F C & # 5 q q q u Q E E E R R R U w q w 0 $ # 4 F F _.0X5X$X{.{.2X~.c lXlXlXlXlXlXlXlXlXlXlXlXlXlX",
"lXlXlXlXlXlXlXlXlXlXc E.2X@X}.].'.'.-X!.= $ % q q u W ! u ( J.d.w.e.e.w.e.#.y T ( W r w 0 $ $ b ^.'.'.'.'.'.;XXXM b lXlXlXlXlXlXlXlXlXlXlXlX",
"lXlXlXlXlXlXlXlXlXo ~.aX1X{.].}.'.G x % q w t W W @.t.z.W ( J.d.e.w.w.w.e.#.y ;.Z.f.X.! Y w w 6 * C `.'.'.].$X4XpX> o lXlXlXlXlXlXlXlXlXlXlX",
"lXlXlXlXlXlXlXlX2 N  X2X2X1X.X`.C * 5 t ) X.o.w.t.t.t.f.! ( K.d.t.0.a.a.#.$.y ;.B.h.j.d.*.[ [ T 0 % l F }.;X2X2X2X~.M lXlXlXlXlXlXlXlXlXlXlX",
"lXlXlXlXlXlXlXlX, 3X1X].}.:X_.3 % 8 r u 4.C.f.t.e.d.d.j.E ( K.d.r.#.9.u.q.$.y ;.C.t.j.f.f.j.v.O.r w 5 * v .X@X].}.uX!.  lXlXlXlXlXlXlXlXlXlX",
"lXlXlXlXlXlXlXc !.;X$X'.'.}.v o 0 ' W L 4.C.f.h.r.d.j.d.E ( K.g.e.w.e.a.q.$.y ;.C.e.d.f.j.j.j.O.i +.I 5   Q.}.'.}.:X X~.> lXlXlXlXlXlXlXlXlX",
"lXlXlXlXlXlX+ M sX+X'.'.].v * 5 w $.o.L 4.x.d.j.r.d.j.r.E ( K.d.d.f.j.t.t.#.u ;.C.t.e.h.j.j.d.{ I Z.) 0 5 2 G }.'.].:XeX- lXlXlXlXlXlXlXlXlX",
"lXlXlXlXlX- ~.XX.X8XwX2X`.- % y | w.| u 4.v.d.j.d.d.j.r.E ( J.d.d.j.j.d.e.#.y ;.C.e.e.f.j.j.d.{ P Z.-.! q o v +X4XwX2X;X/.c 1 lXlXlXlXlXlXlX",
"lXlXlXlXlXO /.7X}.%X%X_.2 9 0 a w.t.o.L 4.b.t.j.f.j.f.r.E ~ K.d.h.j.j.d.t.#.y ;.C.e.e.t.d.f.d.{ P Z.v.| r 7 * x $X%XOXOXaXm O lXlXlXlXlXlXlX",
"lXlXlXlXlX@ /.7X'.'.'.J . 7 W &.e.t.| L 4.b.e.d.f.f.r.r.E ( K.d.d.j.f.d.e.#.y ;.B.t.e.t.d.f.r.{ P Z.z.w.$.u $ - `.'.'.oXpXj + lXlXlXlXlXlXlX",
"lXlXlXlXlX- /.4X'.'.].F . 6 ] t.e.t.o.u B.b.e.e.h.d.w.t.E ~ K.h.d.j.j.d.e.#.u ;.B.t.e.t.d.f.f.o.P Z.z.e.w.u % - _.`.'.OXuXm ; lXlXlXlXlXlXlX",
"lXlXlX3 > ,X1X$XoXOXv & 8 t { r.e.t.{ L 4.b.e.e.h.d.t.t.E ( Z.h.d.f.d.d.d.#.u ;.C.e.t.e.d.j.j.O.P Z.z.e.w.Y w 9 + _.OXOX%X4X!.+ lXlXlXlXlXlX",
"lXlXlX< : pXuXyXyXyXn X r ;.z.e.e.t.| U 4.x.e.e.t.t.e.e.E ( K.x.j.d.e.f.d.#.t ;.C.e.e.e.t.z.z.o.P 4.v.e.e.w.W 7    XiXwXiXsX/.O lXlXlXlXlXlX",
"lXlXlX< : rX:X{.oX+Xz X r 3.N.t.t.t.$.` B.x.t.t.t.t.t.t.W ( K.x.f.r.d.j.f.#.t ;.J.r.t.t.g.f.v.o.P J.G.i.e.t.] 7   W.+X|.{.iX/.O lXlXlXlXlXlX",
"lXlXlX< : rX%X].{.{.x $ w =.-.$.$.$.] a d.*.$.$.$.$.$.$.L T ;.*.%.@.@.%.%.o.r +.-.$.$.o.$.$.$.W u 2.*.q.$.$.W 7 # H }.'.'.wX/.O lXlXlXlXlXlX",
"lXlXlX< : rX%X].].K  .I Q ~ ~ ~ ~ ~ ~ ~ ~ ~ ~ ~ ~ ~ ~ ~ Q ( ( ( E ) ~ ( ( ( T ( ~ ~ ~ Q ~ ~ ~ ~ ~ ^ ~ ~ ~ ~ Q Q Q D Q.'.'.wX/.O lXlXlXlXlXlX",
"lXlXlX< : rX4X:X@Xp +.K.H.H.N.c.I.F.N.N.N.N.N.N.F.F.N.N.N.N.N.N.V.V.I.V.N.N.N.N.N.N.N.F.F.N.N.N.N.N.N.H.I.H.x.c.c.I S :X:XuX/.O lXlXlXlXlXlX",
"lXlXlX< : rXyX5X1Xp *.R.U.i.t.i.S.i.t.t.r.r.e.t.S.S.t.t.t.e.t.e.e.p.S.i.r.r.r.r.t.t.t.D.S.t.t.e.t.t.t.p.S.i.r.r.w.L S 4X4XaX/.O lXlXlXlXlXlX",
"lXlXlX< : rX%X'.`.D a.u.D.u. .{ ] } { { { { { { ' { { { { { { { { { { { { { { { { { { { { { | { { { { { { { { | { g K '.'.7X/.O lXlXlXlXlXlX",
"lXlXlX< : rX%X'.|.|.9.g ` y q q w w w w r w w w w w w w w w w w w w w w w w w w w w w w q w q w w w w w w w w 0 % [.{.'.'.7X/.O lXlXlXlXlXlX",
"lXlXlX< : uXkXhXhX|.J = t _ O.{ { { E i +.+.O.{ | { | { L I +.O.o.{ { { o.X.a O.%.{ { { { { | E L +.o.o.o.{ Y 6 o W.'.'.'.wX/.@ lXlXlXlXlXlX",
"lXlXlX3 l dXdXkXqXqXc X r 3.V.t.t.t.| L 4.N.f.h.t.e.e.t.W ( K.x.d.e.t.t.k.A.9.I.C.t.r.r.t.t.t.{ L Z.j.d.j.d.' 6   -X8X4X8XaX/.@ lXlXlXlXlXlX",
"lXlXlXK v dXkX>X:X:Xb X r ,.c.t.e.t.| L 4.x.f.j.t.t.e.e.W ~ K.x.f.k.A.A.Y.A.` ;.C.t.e.t.r.r.t.{ P Z.x.f.j.j.[ 6   _.;X:X:XuX/.O lXlXlXlXlXlX",
"lXlXlXZ F aX*X'.'.'.l X r ,.c.q.A 8.| u 4.b.r.j.r.r.e.e.W ~ K.h.k.A.U.P.M.*.t ;.C.e.t.e.r.e.t.{ P Z.N.f.d.j.[ 7   J '.'.'.wX/.O lXlXlXlXlXlX",
"lXlXlX3 > rX;X'.'.'.l X r ,.w.Z fXS d L 4.z.r.f.z.d.w.t.W ~ J.m.A.U.g.f.f.%.u ;.C.t.e.d.d.e.t.{ P Z.N.f.r.j.[ 7   G }.'.'.wX/.O lXlXlXlXlXlX",
"lXlXlX< : rX:X+X+X+Xl X r 3.q.Z fXZ d L 4.b.r.d.f.f.r.r.W ~ J.d.M.j.k.j.f.#.u ;.C.t.t.d.f.e.t.{ P Z.x.f.t.j.[ 6   W.OXOX{.wX/.O lXlXlXlXlXlX",
"lXlXlX4 : rXuXyXyXyXM X r 3.b.6.Z 7.} L 4.b.e.t.f.z.f.r.E ~ K.d.d.d.j.j.d.#.u ;.C.e.e.f.f.t.t.{ P Z.N.f.r.j.[ 6   ).uXwXwXsX/.@ lXlXlXlXlXlX",
"lXlXlX< : rX;X+X+X+Xl X w ,.V.0.V 6.o.L 4.b.t.w.r.d.f.t.W ( K.g.w.d.j.f.d.#.t ;.C.t.e.d.f.t.t.{ P Z.N.j.j.j.[ 6   W.@X{.OXwX/.O lXlXlXlXlXlX",
"lXlXlX< > rX%X'.'.'.l X w 3.N.8.V 6.o.U Z.b.e.e.e.d.f.t.E ~ J.d.e.t.j.j.h.#.t ;.C.t.t.d.f.e.t.{ P Z.x.f.f.d.' 6   G '.'.'.wX/.@ lXlXlXlXlXlX",
"lXlXlX< : rX%X'.'.'.l X w 3.N.8.V 6.| L 4.z.e.e.t.d.j.d.W ~ K.d.e.d.j.j.d.#.t ;.C.t.e.h.h.t.e.{ P Z.j.d.f.d.' 6   J '.].'.wX/.@ lXlXlXlXlXlX",
"lXlXlX< : rX2X%X;X:Xb X t 3.V.q.V 6.o.L 4.v.t.e.w.d.f.j.W ~ K.g.e.d.j.j.g.#.t ;.C.t.d.f.f.d.t.{ P Z.j.d.f.d.' 6   _.;X;X:XuX/.@ lXlXlXlXlXlX",
"lXlXlX< : rXiX5X8X8Xc X r 3.h.7.K A g R 1.d.e.t.r.r.r.j./ ~ K.d.e.d.j.j.g.#.t ;.C.e.f.j.j.f.g.{ P Z.M.d.j.j.X.6    XwX4X5XaX/.@ lXlXlXlXlXlX",
"lXlXlX< : rX.X}.'.}.l X r 3.q.C fXF d ..M.d.w.t.t.t.t.f.! ~ K.d.e.g.j.j.g.#.t ;.C.t.f.j.j.j.t.{ P Z.M.m.k.f.[ 6 . G '.}.}.wX/.@ lXlXlXlXlXlX",
"lXlXlX< : rX%X'.'.'.l X r 3.g.A K S f a v.d.e.e.w.t.r.j.W ~ K.d.e.t.g.g.d.#.t ;.C.r.f.h.h.j.t.{ P Z.j.i.j.d.' 6   Q.'.'.'.wX/.@ lXlXlXlXlXlX",
"lXlXlX< : rX%X'.}.}.l X r :.V.0.6.0.| u 4.b.t.e.t.e.r.z.! ~ J.d.e.e.t.e.e.#.t ;.Z.h.j.g.t.j.t.{ P Z.z.e.d.r.' 6   G '.'.'.wX/.@ lXlXlXlXlXlX",
"lXlXlX< : rXwX4X4X4Xc X r ,.x.e.t.t.| u 4.v.e.t.t.t.r.f.! ( J.d.e.e.e.t.t.#.t ;.Z.v.g.g.g.j.g.{ P Z.z.e.r.r.' 6 .  X5X4X4XaX/.O lXlXlXlXlXlX",
"lXlXlX< : rX2X;X:X:Xb X r ,.x.e.e.t.| L 4.b.t.e.t.e.r.j.! ~ J.d.e.t.t.t.e.#.t ;.Z.M.U.U.m.k.j.o.I 4.z.e.t.t.! 7   _.1X&X:XuX/.@ lXlXlXlXlXlX",
"lXlXlX< : rX%X'.'.}.l X r :.x.w.w.e.| u 4.z.w.e.w.r.f.r.E ~ J.d.e.w.w.*.e.#.r 2.L.I.P.Y.A.g.f.X.P B.z.w.w.t.' 7   G '.'.'.7X/.O lXlXlXlXlXlX",
"lXlXlX< : rX%X}.'.].A 0 i / Q R W W Y i Q ! E W W W / E u I ~ W W W W W W } W &.$.p.a. .W E ! Y i Q ! W E T L r 8 K '.'.'.wX/.O lXlXlXlXlXlX",
"lXlXlX< : rX;X{.`.g O.3.>.>.>.<.<.,.:.:.:.:.:.:.<.<.:.:.>.:.:.:.>.>.1.<.n.T.I.F.n.I.N.<.<.>.:.:.>.:.:.>.x.>.>.>.<.` S oX{.wX/.O lXlXlXlXlXlX",
"lXlXlX3 > rXuXyX1Xp =.Z.h.g.g.m.gXm.l.h.h.h.l.l.D.U.h.h.l.g.l.g.d.m.jXY.Y.T.T.P.k.l.d.U.D.k.l.h.h.g.h.m.gXm.h.h.g.L S yXyXsX/.O lXlXlXlXlXlX",
"lXlXlXV z rX;X{.'.g +.>.*.&.&.0.q.0.0.&.#.#.0.&.q.q.&.&.&.#.&.*.y.D.D.D.i.s.a.#.0.0.#.0.q.&.0.0.&.&.#.0.q.0.0.#.&.h D +XOXyX/.O lXlXlXlXlXlX",
"lXlXlX< z uX.X'.].`.A r i i i r t t t t y y y y i y t u i U ` 9. .9.8.` a y t i t t r y i t t t u t t t i y y r e K ].'.'.7X/.O lXlXlXlXlXlX",
"lXlXlX< : rX%X].'.'.l X w P Y P Y L u r I Y U u P P a u t ..s.8.9. .` P u u r P Y a P U U Y u u r I P a U U i 7 o G '.'.'.wX/.O lXlXlXlXlXlX",
"lXlXlX< : rX2X*X%X%Xb X r :.N.-.1.w.{ L 5.z.w.w.d.g.e.i. .&.R.P.i.d.-.d.r.@.i 2.N.w.f.d.*.f.r.{ P 4.f.w.w.e.! 6   _.%X%X%XiX/.O lXlXlXlXlXlX",
"lXlXlX< : rXuXwX6XwXn X r ,.V.t.f.d.| L 4.b.e.t.l.G.Y.D.u.a.R.g.d.f.f.z.h.&.i ;.C.t.d.d.d.j.d.{ I 4.z.t.e.t.] 6   ^.wX7X6XaX/.O lXlXlXlXlXlX",
"lXlXlX< : rX%X'.'.'.z X r ,.c.r.j.h.o.L 4.b.t.d.G.T.U.U. .| J.d.d.f.t.f.d.#.t ;.B.t.t.d.j.h.r.{ P 4.k.t.t.t.' 6   G '.'.'.wX/.O lXlXlXlXlXlX",
"lXlXlX< : rX%X'.'.'.l X r ,.N.r.d.z.%.u 4.x.r.j.t.P.U.i.W ^ K.f.f.f.t.f.h.*.i ;.C.t.w.d.d.e.r.{ P J.z.e.e.t.' 6   G {.'.'.7X/.O lXlXlXlXlXlX",
"lXlXlX< > pX&X'.{.{.l X r 5.c.t.r.g.o.L 4.N.g.g.r.r.y.t.W ^ K.x.h.d.t.d.f.-.u ;.B.t.t.t.t.t.t.{ P J.z.e.t.t.' 6   G {.{.{.iX/.O lXlXlXlXlXlX",
"lXlXlXlXz N c x x x - o % ! X.] ] { p 5 [ X.[ ] ] ] ] ] s 8 O.X.{ ] ] { [ W % W O.] ' ' ' ] ' p 9 ) [ ` ] ] s $ . l x x x M B 4 lXlXlXlXlXlX",
"lXlXlXlXlXlXlXlXlXlXlXlXlXlXlXlXlXlXlXlXlXlXlXlXlXlXlXlXlXlXlXlXlXlXlXlXlXlXlXlXlXlXlXlXlXlXlXlXlXlXlXlXlXlXlXlXlXlXlXlXlXlXlXlXlXlXlXlXlXlX",
"lXlXlXlXlXlXlXlXlXlXlXlXlXlXlXlXlXlXlXlXlXlXlXlXlXlXlXlXlXlXlXlXlXlXlXlXlXlXlXlXlXlXlXlXlXlXlXlXlXlXlXlXlXlXlXlXlXlXlXlXlXlXlXlXlXlXlXlXlXlX",
"lXlXlXlXlXlXlXlXlXlXlXlXlXlXlXlXlXlXlXlXlXlXlXlXlXlXlXlXlXlXlXlXlXlXlXlXlXlXlXlXlXlXlXlXlXlXlXlXlXlXlXlXlXlXlXlXlXlXlXlXlXlXlXlXlXlXlXlXlXlX",
"lXlXlXlXlXlXlXlXlXlXlXlXlXlXlXlXlXlXlXlXlXlXlXlXlXlXlXlXlXlXlXlXlXlXlXlXlXlXlXlXlXlXlXlXlXlXlXlXlXlXlXlXlXlXlXlXlXlXlXlXlXlXlXlXlXlXlXlXlXlX",
"lXlXlXlXlXlXlXlXlXlXlXlXlXlXlXlXlXlXlXlXlXlXlXlXlXlXlXlXlXlXlXlXlXlXlXlXlXlXlXlXlXlXlXlXlXlXlXlXlXlXlXlXlXlXlXlXlXlXlXlXlXlXlXlXlXlXlXlXlXlX",
"lXlXlXlXlXlXlXlXlXlXlXlXlXlXlXlXlXlXlXlXlXlXlXlXlXlXlXlXlXlXlXlXlXlXlXlXlXlXlXlXlXlXlXlXlXlXlXlXlXlXlXlXlXlXlXlXlXlXlXlXlXlXlXlXlXlXlXlXlXlX",
"lXlXlXlXlXlXlXlXlXlXlXlXlXlXlXlXlXlXlXlXlXlXlXlXlXlXlXlXlXlXlXlXlXlXlXlXlXlXlXlXlXlXlXlXlXlXlXlXlXlXlXlXlXlXlXlXlXlXlXlXlXlXlXlXlXlXlXlXlXlX",
"lXlXlXlXlXlXlXlXlXlXlXlXlXlXlXlXlXlXlXlXlXlXlXlXlXlXlXlXlXlXlXlXlXlXlXlXlXlXlXlXlXlXlXlXlXlXlXlXlXlXlXlXlXlXlXlXlXlXlXlXlXlXlXlXlXlXlXlXlXlX"
};
