/* XPM */
static char *result[] = {
/* columns rows colors chars-per-pixel */
"70 70 44 1 ",
"  c #2C1E31",
". c #33243C",
"X c #372743",
"o c #3D2C4C",
"O c #3F2E50",
"+ c #412F4E",
"@ c #412F52",
"# c #423054",
"$ c #4A3656",
"% c #463358",
"& c #4A365B",
"* c #4D395D",
"= c #513C5E",
"- c #4F3A60",
"; c #533E64",
": c #56415F",
"> c #564066",
", c #5A4465",
"< c #5F4967",
"1 c #574068",
"2 c #5D456E",
"3 c #5F4968",
"4 c #5F4770",
"5 c #604A67",
"6 c #634C6B",
"7 c #67506E",
"8 c #68506F",
"9 c #604770",
"0 c #634A73",
"q c #684F77",
"w c #694F78",
"e c #6B5273",
"r c #6C537A",
"t c #705777",
"y c #71577E",
"u c #735A7C",
"i c #755B82",
"p c #795E84",
"a c #7C6186",
"s c #7E6289",
"d c #82668C",
"f c #85698F",
"g c #876A90",
"h c #886B91",
/* pixels */
"#@##@O##&;&#@#@##%22*##@###@###########-;24;4442422200;w4444;4-#%OO%O%",
"###@#@#&441####@#&12*######O#O###O####;;;4444;242424;;w;0;444;##OOOOOO",
"@####O&1444%@%%-1122*######OO#######O%44;022424244;4;i;;004;4-##%OOOO%",
"#@@#@@&14141;;;442221###@@##OO####OOO-4442444442444;0;---;44;-##OOO%O%",
"#@#%%@-41444444424222&#####@OOO###OOO%4444444244444;44;##%;;-%##O%OOOO",
"%*;11;1444444444422222&##@#O##OoXO#O%%4;44442440442444;##%%###&;1-%OOO",
"22224444441444144242222&######O  .O#O#;44424424;442244;&-&@O##;421>O--",
"444114444444441;24212222;-####OX. O%O%44;242244;4242420;%@%%%%;;222122",
"24424224444411911444222244;%####OoO##%;4444424240;;;w;;4;&;;;&99422424",
"422422424199144414222222444;##@#OO###-444;;424440;i;4;940;**%;92221122",
"2222424244411141122244222241&@@O##O#%;40444;424444ii9;4444;;2222222242",
"24424224441144442224224241241#@@####-;4;4;404444ii00i00;4404;292224224",
"492424224412424224224222142221&#%#%%-;i;4;044440isi;099422299292222222",
"222242422492444122242422111141;;;;;%;4;;4;;;444isfs0;44499222222422212",
"222442244242442122422442429442;10;;%;44i444444igggsw999022922229242212",
"22122422222424412422422424442222;&%-444;4;44iissgssi90;;29229922212411",
"4221222224442421942422222222422*#@%;440;42;40phhgggi44;44444;444&O-1&-",
"242212;*&-;12292242442222222422;##%444444444wghsgggi444;44444444>OOOO&",
"242222%##@o+=2922422244222222421##&;4;422444iggsgggs40444;044;4;>OO#O-",
"422224;%#@##+122422422922224222>##-444444244pggsgggp444444444440:O##O>",
"24224421%%;;;$42122242244222221$##&;44442244gggsgggi444444444444%%>&#-",
"22442249;;422$2212442442242422&###-;;4442404shgsggsi4;444;444444:>21%&",
"42422444;1441$222242222222222,####%&444444wwshgsgggw444;444444;4>%22&&",
"242242242129,$222222922242444*#2;&#%;4444;4ighssggs44444;iw444443%&221",
"2222222212222=2922292411944441$244;%;04;224pgggsggs4i44;0w22244422-%:2",
"421242422224212222422441442222$>24;;;04w4;isgghsggi2wi4isii44444424322",
"4222244222422242422244211442222$&--;004422shggssghi224ipghpii4;4242422",
"41142422222442242224622142244222;;;04;402iggggsgghi4iisgshiii444224222",
"21229r44242422224214242242924222;04440442isgggsgggiisshgsgwwi422224222",
"4949q0242222424222224222222242440;444;44isggggsgggssgshggs04;224222444",
"44rpsy42422422442249224212222444444444440sgggggsgghhggggggs04424222424",
"4qdggdw4244224222422241==;229999440;44;4igggggggggghgghggsi04422122222",
"4pdghsy42222424242242:<yueiii04444444444ifffhfhhffhghhfffi;0444;122222",
"rsdggga4222224222422*eggsgsgsq4444444440shfdfhfhhhggfhhhd;444440222222",
"4sggshs0222442242241,fgghgsggi44444;444ifffdffhfghggfffhi;444044224222",
"rggggggw22424222124:thggggsghsq4;04;4;;ifffdffffhfhffhhfi;44;;44422424",
"aggggggi24424242222:shsgggggghsq2442442ihfhddfdisfggddhd00w;4;w4424402",
"gggggggs4424222422-ehggggggghhhsw244444phhhfffd04pggdsfd;;44440;242qi0",
"gggggggg0442242222,sgghssgggshggsi4444ishffddfdw4isfsfff;4w444440240q2",
"gggsggggi442424421ehghhgsgggsggggsi424pghfhfffdwiidffffd0wfs4444qq2222",
"gghshhhha221244224ahhggsshggsgggggsswiggggggggf4upfhfdddi0ffy299402224",
"gghshhggs42222242yggghhdsgggssggggsgdgggssgggggppfhhfdddd9ddu;9942222q",
"ggggggggsq2212444ahhffhfaqahhsggggggggggdsgggggghhhfhfaffu5t6t9922424p",
"gggggggggr2244240shhsfhhp2wghgsggggggggggdgggggfhfffhfddfhde5p0922220s",
"shsggggggp224224qfgghhghu7qsgfsgggggggggggggggffffffhhddfhhh6pu91222ih",
"sshggggghs442242rggghhhheeqsggggggggggsgggggggsidfhffhffhhff5dd92224ss",
"gshhsggghs424222esgggggha3ufggggdggggpwpgggggggi0dfhhffhfhhh6pd92224ss",
"shhhhgggha442444ihggggggfuagggggsgggdw4iggggggfi9qdhhffhfhhh8pfyq020ss",
"shhhhhhhhs004424ahgffggggsfhgghgsfhhi42<dggfggfsr2ifggggggghythfhs00ss",
"shhhhsshha224220sggfsfgggsfgggggddhhr241ugggggdsy20phggggggha6fhss0uhh",
"gghhhhfhhi22222igggfsggggffggghsdfhdq2216hggggfdq990sggggddgheedss7shh",
"hggghhsrrq22222ahggdfhgggggggghgshhi4992,gffgggi9ipwiggggffghf86aa3shh",
"gghhhhs4222220rsgggggggggggggggsdhhi9sse6fffgggrifgdfgggfhhfhhfuuephss",
"hshhhhs0224444ihfhggggfhffgggggghhhiighi7hghggfrdgfgggggffhhhfhfhhsssh",
"gshhghs4222220shshgggfshfffgggghgghpdhhu8hggggdifggggggfdhfhhfhfshhhsh",
"hhhsshsr2222qishgggggggggfggfgshfhhifhhuehggffdiggggggfgffhfhhfhsshhhh",
"hhhashgr2222ishhggggggfghdhhshdffhgidghuehggfgfdggggfiighhggsfggssshhh",
"hhsasshu2224ssshgggghssghggfshhfgggaida<uhggdffgffgha9efhffgpigghshhhs",
"shhushhs022rshhhdishhffghhgishhfdhggu6<tfgggdssghggdir8ffffgdrighhhhhh",
"hhhushhsar2ahhhha4ahgggggghrahhfshgghddhgggggddggggdsa6fhgfhgi9sshhhhh",
"hhhu7gggsa6shhhhi2qfggggdhhirhhddggghggggggggffgggggderggggggr2ihshhhh",
"hssh7uhghaehhhhsdr4shggghhhy4ifffgggggggggggggfggggggfgggggghi2rhshhss",
"shhhs6uss7ahhhhsai4adhgghhgt14ahhgfggggggggggggggffggggggggggr2whsshsh",
"hhhhhs767thshhhtas0sshgggiii:2ihgdfgggggsdgggggggdfgggggggghi94whhhhhh",
"hhhhhhhhsisshhheusashhsshi4re:ishshhhhssiasshhshhshshshhshhhipiqashhhh",
"hhhhshhhsqshhhha5tshhhhissq2i7rashhhhssi2phshhhhhhhshhhhhhhshssiishshh",
"fhhhhhhhs4qashhhaashhssiasi2riasshhshhsq2ihshhsssssshhhhhhhhhhhsrssshh",
"sshhhhhsr0qeishhhhhhhhhsysq0shhshhsshssr2psshhssqqshhhhshhshshhhsssshs",
"sshhhssaashsashhhshhhhssqs00ashhssirssp22ishhhsi24shhhssssshhshshsshhh",
"hhshhaahhshhhsahhhhhhssu0si0qshhaq04rsi24phshhsq22ihhhhseuhhhhhshhhhhh"
};
