/* XPM */
static char *result[] = {
/* columns rows colors chars-per-pixel */
"70 70 223 2 ",
"   c #144C7C",
".  c #1B4F7E",
"X  c #17517F",
"o  c #274B76",
"O  c #24527D",
"+  c #29537E",
"@  c #31527C",
"#  c #7CAE56",
"$  c #4A9A6B",
"%  c #759E7F",
"&  c #91B674",
"*  c #A2BA70",
"=  c #044D8B",
"-  c #08478B",
";  c #194C86",
":  c #05518A",
">  c #0B528B",
",  c #1E5382",
"<  c #14578D",
"1  c #035795",
"2  c #025E9D",
"3  c #0A5E9B",
"4  c #0B5A96",
"5  c #175B96",
"6  c #255682",
"7  c #2C5A84",
"8  c #245A8A",
"9  c #2B5D8A",
"0  c #295786",
"q  c #345E89",
"w  c #375E87",
"e  c #215E95",
"r  c #05609E",
"t  c #14629C",
"y  c #34618C",
"u  c #3B648B",
"i  c #3C6387",
"p  c #2E6291",
"a  c #3E6990",
"s  c #015FA2",
"d  c #0261A3",
"f  c #0B64A4",
"g  c #0065AA",
"h  c #0B66A8",
"j  c #0169AD",
"k  c #0B6CAC",
"l  c #0F6BA7",
"z  c #1166A3",
"x  c #1569A5",
"c  c #1C6BA6",
"v  c #136AA8",
"b  c #1A6CAA",
"n  c #1866A2",
"m  c #1D71AC",
"M  c #1471AF",
"N  c #0D70B1",
"B  c #1274B4",
"V  c #1C78B4",
"C  c #0A6FB1",
"Z  c #256EA6",
"A  c #216FAC",
"S  c #2473AB",
"D  c #2B74AB",
"F  c #2A73A9",
"G  c #3275AD",
"H  c #3579AE",
"J  c #3C7BAD",
"K  c #3577AA",
"L  c #2376B1",
"P  c #247BB2",
"I  c #2879B1",
"U  c #3D7DB2",
"Y  c #337AB2",
"T  c #366FA2",
"R  c #4A6787",
"E  c #486D91",
"W  c #436791",
"Q  c #497797",
"!  c #5C7992",
"~  c #577996",
"^  c #526C8B",
"/  c #657D97",
"(  c #657E99",
")  c #65788F",
"_  c #437CAE",
"`  c #4876A8",
"'  c #587CA6",
"]  c #457FB1",
"[  c #627DA6",
"{  c #328992",
"}  c #3A86B7",
"|  c #378CB2",
" . c #5C809E",
".. c #528A8F",
"X. c #64819A",
"o. c #6A839A",
"O. c #688095",
"+. c #758B9D",
"@. c #7D8F9F",
"#. c #738497",
"$. c #4582B3",
"%. c #4C84B4",
"&. c #4E89B9",
"*. c #4788B9",
"=. c #5385B3",
"-. c #5389B6",
";. c #5B8CB6",
":. c #558EBB",
">. c #598FBB",
",. c #449EB4",
"<. c #5D92BB",
"1. c #6483A5",
"2. c #758CA1",
"3. c #7C8DA3",
"4. c #728CAD",
"5. c #7E92A2",
"6. c #7D92AF",
"7. c #6392BB",
"8. c #6B99BE",
"9. c #6A94B8",
"0. c #749ABE",
"q. c #7796BA",
"w. c #628EBA",
"e. c #4AA1BA",
"r. c #5595C3",
"t. c #6C9BC3",
"y. c #6195C0",
"u. c #739EC3",
"i. c #7A9FC2",
"p. c #59A6CD",
"a. c #69A2C8",
"s. c #7DA3C2",
"d. c #77A6C9",
"f. c #75B8D7",
"g. c #7CBAD7",
"h. c #7BBAD9",
"j. c #6EB1D3",
"k. c #95AE86",
"l. c #8FB98D",
"z. c #8194A4",
"x. c #8D9EAB",
"c. c #8899A8",
"v. c #839BB8",
"b. c #8FA0AD",
"n. c #93A3AE",
"m. c #98A4AE",
"M. c #96ACA1",
"N. c #8CA4BB",
"B. c #93A4B1",
"V. c #99A6B1",
"C. c #9BA9B4",
"Z. c #9DADBB",
"A. c #A4B8AA",
"S. c #A3ADB5",
"D. c #A9AFB8",
"F. c #A3B2BB",
"G. c #ABB4BC",
"H. c #ABB3B5",
"J. c #B2B6BB",
"K. c #B5BBBB",
"L. c #BABEBD",
"P. c #B1B9B4",
"I. c #A7C7B0",
"U. c #B9CBBA",
"Y. c #84A4C5",
"T. c #85ABCA",
"R. c #8BACCA",
"E. c #8AA8C5",
"W. c #95AEC7",
"Q. c #93B2CD",
"!. c #9AB4CD",
"~. c #84BEDB",
"^. c #9DBBD4",
"/. c #93B6D0",
"(. c #8EB5CE",
"). c #AAB4C2",
"_. c #A7BACF",
"`. c #BABEC0",
"'. c #B6BDC6",
"]. c #A3BBD2",
"[. c #A8BED7",
"{. c #BEC1C2",
"}. c #BDC3CA",
"|. c #AEC4D6",
" X c #ADC3D9",
".X c #A2CADF",
"XX c #B2C4D5",
"oX c #B3C6D9",
"OX c #BBCCDB",
"+X c #B7C5D5",
"@X c #B6D3E2",
"#X c #C2C5C5",
"$X c #C5C8CD",
"%X c #CAD5C7",
"&X c #D5DDCE",
"*X c #C1CEDB",
"=X c #C1CDD7",
"-X c #CED1D1",
";X c #C5D2DD",
":X c #CBD4DE",
">X c #D2D4D5",
",X c #DCDCDD",
"<X c #D3D8DF",
"1X c #E3E6DF",
"2X c #CCD5E2",
"3X c #CCDAE4",
"4X c #C2D4E2",
"5X c #D4DBE3",
"6X c #DCDFE6",
"7X c #E1DFE2",
"8X c #DCE1E6",
"9X c #DCE1E8",
"0X c #E5E4E6",
"qX c #E9E9E7",
"wX c #E4E6E9",
"eX c #E8E6E9",
"rX c #E6E8EA",
"tX c #EBEBEC",
"yX c #E6E8E4",
"uX c #F1EEEF",
"iX c #EEEEF0",
"pX c #F1F2F1",
"aX c None",
/* pixels */
"aXaXaXaXaXaXaXaXaXaXaXaXaXaXaXaXaXaXaXaXaXaXaXaXaXaXaXaXaXaXaXaXaXaXaXaXaXaXaXaXaXaXaXaXaXaXaXaXaXaXaXaXaXaXaXaXaXaXaXaXaXaXaXaXaXaXaXaXaXaX",
"aXaXaXaXaXaXaXaXaXaXaXaXaXaXaXaXaXaXaXaXaXaXaXaXaXaXaXaXaXaXaXaXaXaXaXaXaXaXaXaXaXaXaXaXaXaXaXaXaXaXaXaXaXaXaXaXaXaXaXaXaXaXaXaXaXaXaXaXaXaX",
"aXaXaXaXaXaXaXaXaXaXaXaXaXaXaXaXaXaXaXaXaXaXaXaXaXaXaXaXaXaXaXaXaXaXaXaXaXaXaXaXaXaXaXaXaXaXaXaXaXaXaXaXaXaXaXaXaXaXaXaXaXaXaXaXaXaXaXaXaXaX",
"aXaXaXaXaXaXaXaXaXaXaXaXaXaXaXaXaXaXaXaXaXaXaXaXaXaXaXaXaXaXaXaXaXaXaXaXaXaXaXaXaXaXaXaXaXaXaXaXaXaXaXaXaXaXaXaXaXaXaXaXaXaXaXaXaXaXaXaXaXaX",
"aXaXaXaXaXaXaXaXaXaXaXaXaXaXaXaXaXaXaXaXaXaXaXaXaXaXaXaXaXaXaXaXaXaXaXaXaXaXaXaXaXaXaXaXaXaXaXaXaXaXaXaXaXaXaXaXaXaXaXaXaXaXaXaXaXaXaXaXaXaX",
"aXaXaXaXaXaXaXaXaXaXaXaXaXaXaXaXaXaXaXaXaXaXaXaXaXaXaXaXaXaXaXaXaXaXaXaXaXaXaXaXaXaXaXaXaXaXaXaXaXaXaXaXaXaXaXaXaXaXaXaXaXaXaXaXaXaXaXaXaXaX",
"aXaXaXaXaXaXaXaXaXaXaXaXaXaXaXaXaXaXaXaXaXaXaXaXaXaXaXaXaXaXaXaXaX7XrXpXtX0X6XaXaXaXaXaXaXaXaXaXaXaXaXaXaXaXaXaXaXaXaXaXaXaXaXaXaXaXaXaXaXaX",
"aXaXaXaXaXaXaXaXaXaXaXaXaXaXaXaXaXaXaXaXaXaXaXaXaXaXaXaXaXaXaXaX3X<XwXuXtX7X,X,XaXaXaXaXaXaXaXaXaXaXaXaXaXaXaXaXaXaXaXaXaXaXaXaXaXaXaXaXaXaX",
"aXaXaXaXaXaXaXaXaXaXaXaXaXaXaXaXaXaXaXaXaXaXaXaXaXaXD t f C B V } } r.p.d.d.g.Q.j.aXaXaXaXaXaXaXaXaXaXaXaXaXaXaXaXaXaXaXaXaXaXaXaXaXaXaXaXaX",
"aXaXaXaXaXaXaXaXaXaXaXaXaXaXaXaXaXaXaXaXaXaXaXaXn l r 1 d j j j j j j g j j j j N B B V V P aXaXaXaXaXaXaXaXaXaXaXaXaXaXaXaXaXaXaXaXaXaXaXaX",
"aXaXaXaXaXaXaXaXaXaXaXaXaXaXaXaXaXaXaXaXaXaXaX> 2 2 1 : d j g j j j j j j g j j g g j j g k aXaXaXaXaXaXaXaXaXaXaXaXaXaXaXaXaXaXaXaXaXaXaXaX",
"aXaXaXaXaXaXaXaXaXaXaXaXaXaXaXaXaXaXaXaXaXaX9 1 1 2 1 > m V V M N k j j g g g s g g g g g k aXaXaXaXaXaXaXaXaXaXaXaXaXaXaXaXaXaXaXaXaXaXaXaX",
"aXaXaXaXaXaXaXaXaXaXaXaXaXaXaXaXaXaXaXaXaXaXe = 1 2 e N.;X3X3X4XOX X^./.T.d.u.y.r.$.} Y I I aXaXaXaXaXaXaXaXaXaXaXaXaXaXaXaXaXaXaXaXaXaXaXaX",
"aXaXaXaXaXaXaXaXaXaXaXaXaXaXaXaXaXaXaXaXaXaXX.Q 2 1 ! -X0XtXtXuXiXpXpXiXwX0X0XiXiXrXwX9X5X3XaXaXaXaXaXaXaXaXaXaXaXaXaXaXaXaXaXaXaXaXaXaXaXaX",
"aXaXaXaXaXaXaXaXaXaXaXaXaXaXaXaXaXaXaXaXaXaX#XS.5 4 B.{.,XtXtXtXiX6X).6.1.' [ 6._.rXiXiXuXuXaXaXaXaXaXaXaXaXaXaXaXaXaXaXaXaXaXaXaXaXaXaXaXaX",
"aXaXaXaXaXaXaXaXaXaXaXaXaXaXaXaXaXaXaXaXaXaX#XZ.4 p G.G.>XtXtXtX5X4.[ ; - - - - ; [ 9XiXuXiXaXaXaXaXaXaXaXaXaXaXaXaXaXaXaXaXaXaXaXaXaXaXaXaX",
"aXaXaXaXaXaXaXaXaXaXaXaXaXaXaXaXaXaXaXaXaXaX#XG.W #.K.k.-XqXtXuXv.5 N.` K } | c ' 9 q.tXuXtXaXaXaXaXaXaXaXaXaXaXaXaXaXaXaXaXaXaXaXaXaXaXaXaX",
"aXaXaXaXaXaXaXaXaXaXaXaXaXaXaXaXaXaXaXaXaXaX{.{.J.`.P.k.-XtXtXuXq.e Y.Q.R.T.d.N.W.c.=.9XtXuXaXaXaXaXaXaXaXaXaXaXaXaXaXaXaXaXaXaXaXaXaXaXaXaX",
"aXaXaXaXaXaXaXaXaXaXaXaXaXaXaXaXaXaXaXaXaXaX{.{.#X#XL.D.>XrXtXqXF.Q { | ,.,.e.p.*.T 1.rXtXtXaXaXaXaXaXaXaXaXaXaXaXaXaXaXaXaXaXaXaXaXaXaXaXaX",
"aXaXaXaXaXaXaXaXaXaXaXaXaXaXaXaXaXaXaXaXaXaX{.{.J.c.J.L.>XqXtXqX&XU.I.A.l.& # $ { ..I.rXtXuXaXaXaXaXaXaXaXaXaXaXaXaXaXaXaXaXaXaXaXaXaXaXaXaX",
"aXaXaXaXaXaXaXaXaXaXaXaXaXaXaXaXaXaXaXaXaXaXL.{.o.; 2.#X>XtXtXtXtXtXtXtXqX&X* * %X1XuXtXuXuXaXaXaXaXaXaXaXaXaXaXaXaXaXaXaXaXaXaXaXaXaXaXaXaX",
"aXaXaXaXaXaXaXaXaXaXaXaXaXaXaXaXaXaXaXaXaXaXL.G./ ' z.{.>XeXeXtXtXtXtXtXtXtX1XtXtXtXtXqXtXtXaXaXaXaXaXaXaXaXaXaXaXaXaXaXaXaXaXaXaXaXaXaXaXaX",
"aXaXaXaXaXaXaXaXaXaXaXaXaXaXaXaXaXaXaXaXaXaXU.D. ...+.{.>XeXrXrXwXtXtXtXtXqXtXuXuXuXtXtXtXuXaXaXaXaXaXaXaXaXaXaXaXaXaXaXaXaXaXaXaXaXaXaXaXaX",
"aXaXaXaXaXaXaXaXaXaXaXaXaXaXaXaXaXaXaXaXaXaXL.K.M.% A.{.>XeXrXwXrXtXtXtX8Xi.R.OX8XqXtXtXtXtXaXaXaXaXaXaXaXaXaXaXaXaXaXaXaXaXaXaXaXaXaXaXaXaX",
"aXaXaXaXaXaXaXaXaXaXaXaXaXaXaXaXaXaXaXaXaXaXL.L.L.P.L.`.-X6X*X0XtXtXrXrXtXR.s z *.5XtXtXtXtXaXaXaXaXaXaXaXaXaXaXaXaXaXaXaXaXaXaXaXaXaXaXaXaX",
"aXaXaXaXaXaXaXaXaXaXaXaXaXaXaXaXaXaXaXaXaXaXL.J.S.n.V.J.-X8.c T.wX!.5XtXtXOXw.&.$.6X*X8XuXtXaXaXaXaXaXaXaXaXaXaXaXaXaXaXaXaXaXaXaXaXaXaXaXaX",
"aXaXaXaXaXaXaXaXaXaXaXaXaXaXaXaXaXaXaXaXaXaX`.K.D.S.H.`.'.S 2 -.u.%.oXT.-.H U 7.i.2X7.Y.8XtXaXaXaXaXaXaXaXaXaXaXaXaXaXaXaXaXaXaXaXaXaXaXaXaX",
"aXaXaXaXaXaXaXaXaXaXaXaXaXaXaXaXaXaXaXaXaXaXJ.K.J.S.L.K.$XT.&.Q.0.7.S d s s s s b %.] -.R.rXaXaXaXaXaXaXaXaXaXaXaXaXaXaXaXaXaXaXaXaXaXaXaXaX",
"aXaXaXaXaXaXaXaXaXaXaXaXaXaXaXaXaXaXaXaXaXaXD.S.D.m.J.F.+XwXwX<X7.f z z d d d d s s A ] -.oXaXaXaXaXaXaXaXaXaXaXaXaXaXaXaXaXaXaXaXaXaXaXaXaX",
"aXaXaXaXaXaXaXaXaXaXaXaXaXaXaXaXaXaXaXaXaXaXD.B.n.x.b.B.$XwXrX|.c v U %.v d g d d d h D -.[.aXaXaXaXaXaXaXaXaXaXaXaXaXaXaXaXaXaXaXaXaXaXaXaX",
"aXaXaXaXaXaXaXaXaXaXaXaXaXaXaXaXaXaXaXaXaXaXaXn.n.b.n.B.}.wX8X%.$.R.$.W.-.d h S h b d b  XiXaXaXaXaXaXaXaXaXaXaXaXaXaXaXaXaXaXaXaXaXaXaXaXaX",
"aXaXaXaXaXaXaXaXaXaXaXaXaXaXaXaXaXaXaXaXaXaXaXV.x.z.n.C.}.wXXXf :. XF ;.J d b T.U ].S d ^.pXaXaXaXaXaXaXaXaXaXaXaXaXaXaXaXaXaXaXaXaXaXaXaXaX",
"aXaXaXaXaXaXaXaXaXaXaXaXaXaXaXaXaXaXaXaXaXaXaXC.C.V.V.S.#XwXs.2 :.[.z <.8.u.L Y.0.2X%.s t.iXaXaXaXaXaXaXaXaXaXaXaXaXaXaXaXaXaXaXaXaXaXaXaXaX",
"aXaXaXaXaXaXaXaXaXaXaXaXaXaXaXaXaXaXaXaXaXaXaXn.m.n.n.V.}.wX<.s >.].%.|._ OX] XX;.oXA s &.iXaXaXaXaXaXaXaXaXaXaXaXaXaXaXaXaXaXaXaXaXaXaXaXaX",
"aXaXaXaXaXaXaXaXaXaXaXaXaXaXaXaXaXaXaXaXaXaXaXm.n.x.c.n.}.0X&.s >.].9.!.Z oXU oX-.oXm s &.tXaXaXaXaXaXaXaXaXaXaXaXaXaXaXaXaXaXaXaXaXaXaXaXaX",
"aXaXaXaXaXaXaXaXaXaXaXaXaXaXaXaXaXaXaXaXaXaXaXm.m.m.V.C.}.0X:.s >.].t.].G OX<.*Xu.*XY s y.tXaXaXaXaXaXaXaXaXaXaXaXaXaXaXaXaXaXaXaXaXaXaXaXaX",
"aXaXaXaXaXaXaXaXaXaXaXaXaXaXaXaXaXaXaXaXaXaXaXx.n.c.x.V.}.0Xu.s Y oXs.R.0.R.T.Y.T.T.-.s T.uXaXaXaXaXaXaXaXaXaXaXaXaXaXaXaXaXaXaXaXaXaXaXaXaX",
"aXaXaXaXaXaXaXaXaXaXaXaXaXaXaXaXaXaXaXaXaXaXaXn.x.5.x.b.{.yX[.f s b f f b b b d f d d v OXtXaXaXaXaXaXaXaXaXaXaXaXaXaXaXaXaXaXaXaXaXaXaXaXaX",
"aXaXaXaXaXaXaXaXaXaXaXaXaXaXaXaXaXaXaXaXaXaXaX .2.5.x.B.'.eX6XJ s s d d M S m h f d d :.wXtXaXaXaXaXaXaXaXaXaXaXaXaXaXaXaXaXaXaXaXaXaXaXaXaX",
"aXaXaXaXaXaXaXaXaXaXaXaXaXaXaXaXaXaXaXaXaXaXaX, u E Q ~ '.wXqX].z h V S P b P L P l S OXtXuXaXaXaXaXaXaXaXaXaXaXaXaXaXaXaXaXaXaXaXaXaXaXaXaX",
"aXaXaXaXaXaXaXaXaXaXaXaXaXaXaXaXaXaXaXaXaXaXaX8 E u y , Z.wX*X=X8.f d f d r d d r m R.:XwXtXaXaXaXaXaXaXaXaXaXaXaXaXaXaXaXaXaXaXaXaXaXaXaXaX",
"aXaXaXaXaXaXaXaXaXaXaXaXaXaXaXaXaXaXaXaXaXaXaXy < , 9 , Z.:XG U 2XW.D s r r r f H |.XXF |.tXaXaXaXaXaXaXaXaXaXaXaXaXaXaXaXaXaXaXaXaXaXaXaXaX",
"aXaXaXaXaXaXaXaXaXaXaXaXaXaXaXaXaXaXaXaXaXaXaX+.o.u p 8 Z.:XF K <XeX:XR.%.%.t.].2X].R.;.2XtXaXaXaXaXaXaXaXaXaXaXaXaXaXaXaXaXaXaXaXaXaXaXaXaX",
"aXaXaXaXaXaXaXaXaXaXaXaXaXaXaXaXaXaXaXaXaXaXaX3.5.o.c.o.G.0X=XOXwX0XwX0X9.%.XXuXOXc Y 5XtXtXaXaXaXaXaXaXaXaXaXaXaXaXaXaXaXaXaXaXaXaXaXaXaXaX",
"aXaXaXaXaXaXaXaXaXaXaXaXaXaXaXaXaXaXaXaXaXaXaXz.z.o.x.5.G.0XwXeX0X0X0X0XXX!.+XtX;XK t.tXtXtXaXaXaXaXaXaXaXaXaXaXaXaXaXaXaXaXaXaXaXaXaXaXaXaX",
"aXaXaXaXaXaXaXaXaXaXaXaXaXaXaXaXaXaXaXaXaXaXaXz.z./ c.3.G.yXeXwX0X0X0X0XqXqXtXrXqX5XwXtXiXtXaXaXaXaXaXaXaXaXaXaXaXaXaXaXaXaXaXaXaXaXaXaXaXaX",
"aXaXaXaXaXaXaXaXaXaXaXaXaXaXaXaXaXaXaXaXaXaXaXO.2./ c.3.G.eXwXeX0X0X0X0X0XqXqXqXqXtXtXrXrXrXaXaXaXaXaXaXaXaXaXaXaXaXaXaXaXaXaXaXaXaXaXaXaXaX",
"aXaXaXaXaXaXaXaXaXaXaXaXaXaXaXaXaXaXaXaXaXaXaX+./ ~ +.+.G.eX8X8X5X0X0X0X0XyXqXwXrXrXrXtXtXiXaXaXaXaXaXaXaXaXaXaXaXaXaXaXaXaXaXaXaXaXaXaXaXaX",
"aXaXaXaXaXaXaXaXaXaXaXaXaXaXaXaXaXaXaXaXaXaXaXi / 5.o.! G.8X.Xg.g.@XwXqXeXqXeXtXrXtXwX9X6X6XaXaXaXaXaXaXaXaXaXaXaXaXaXaXaXaXaXaXaXaXaXaXaXaX",
"aXaXaXaXaXaXaXaXaXaXaXaXaXaXaXaXaXaXaXaXaXaXaX6 0 7 ! z.{.@Xf.~.g.~.;XOX+X].!.T.u.y.&.$.G D aXaXaXaXaXaXaXaXaXaXaXaXaXaXaXaXaXaXaXaXaXaXaXaX",
"aXaXaXaXaXaXaXaXaXaXaXaXaXaXaXaXaXaXaXaXaXaXaX6 y 9 6 8  .a.f.h.g.p.S n z f s s d s d d d d aXaXaXaXaXaXaXaXaXaXaXaXaXaXaXaXaXaXaXaXaXaXaXaX",
"aXaXaXaXaXaXaXaXaXaXaXaXaXaXaXaXaXaXaXaXaXaXaX7 6 0 q 6 : l j.~.f.} s 2 s s s s d d d d d h aXaXaXaXaXaXaXaXaXaXaXaXaXaXaXaXaXaXaXaXaXaXaXaX",
"aXaXaXaXaXaXaXaXaXaXaXaXaXaXaXaXaXaXaXaXaXaXaXw q q 0 8 : 2 m | P s s s s x x n D D &.v d h aXaXaXaXaXaXaXaXaXaXaXaXaXaXaXaXaXaXaXaXaXaXaXaX",
"aXaXaXaXaXaXaXaXaXaXaXaXaXaXaXaXaXaXaXaXaXaXaX7 w W u 7 > 2 r t *.J $.S w.W.0.u.s.t.!.Y s f aXaXaXaXaXaXaXaXaXaXaXaXaXaXaXaXaXaXaXaXaXaXaXaX",
"aXaXaXaXaXaXaXaXaXaXaXaXaXaXaXaXaXaXaXaXaXaXaX. O q w w < 2 2 H R.-.].8.w.t.7.Y.i.0._.c d h aXaXaXaXaXaXaXaXaXaXaXaXaXaXaXaXaXaXaXaXaXaXaXaX",
"aXaXaXaXaXaXaXaXaXaXaXaXaXaXaXaXaXaXaXaXaXaXaX/ i X y 7 > 2 2 H R.=.8.Q.w.7.;.0.0.=.:.D d h aXaXaXaXaXaXaXaXaXaXaXaXaXaXaXaXaXaXaXaXaXaXaXaX",
"aXaXaXaXaXaXaXaXaXaXaXaXaXaXaXaXaXaXaXaXaXaXaX#./   + X : r s F s._ Y D F Z z z z d d d d l aXaXaXaXaXaXaXaXaXaXaXaXaXaXaXaXaXaXaXaXaXaXaXaX",
"aXaXaXaXaXaXaXaXaXaXaXaXaXaXaXaXaXaXaXaXaXaXaX) O.O ^ O : 2 2 2 f d d s s z f H U f d d d h aXaXaXaXaXaXaXaXaXaXaXaXaXaXaXaXaXaXaXaXaXaXaXaX",
"aXaXaXaXaXaXaXaXaXaXaXaXaXaXaXaXaXaXaXaXaXaXaXR R X ^ 7 = 2 r d 2 s G x ] _ J ] Y d d d d h aXaXaXaXaXaXaXaXaXaXaXaXaXaXaXaXaXaXaXaXaXaXaXaX",
"aXaXaXaXaXaXaXaXaXaXaXaXaXaXaXaXaXaXaXaXaXaXaXO @ 6 i   : 2 2 2 r s _ n %.=.] J D d d d d h aXaXaXaXaXaXaXaXaXaXaXaXaXaXaXaXaXaXaXaXaXaXaXaX",
"aXaXaXaXaXaXaXaXaXaXaXaXaXaXaXaXaXaXaXaXaXaXaX@ O X 7 7 : 2 r d 2 d K J _ D n F x d d z v h aXaXaXaXaXaXaXaXaXaXaXaXaXaXaXaXaXaXaXaXaXaXaXaX",
"aXaXaXaXaXaXaXaXaXaXaXaXaXaXaXaXaXaXaXaXaXaXaXaXo O     : 2 r 2 d d t S z d d s d d b =.=.b aXaXaXaXaXaXaXaXaXaXaXaXaXaXaXaXaXaXaXaXaXaXaXaX",
"aXaXaXaXaXaXaXaXaXaXaXaXaXaXaXaXaXaXaXaXaXaXaXaXaXaXO X : 2 2 d d r d d d d 2 r 3 3 t aXaXaXaXaXaXaXaXaXaXaXaXaXaXaXaXaXaXaXaXaXaXaXaXaXaXaX",
"aXaXaXaXaXaXaXaXaXaXaXaXaXaXaXaXaXaXaXaXaXaXaXaXaXaXaXo : 2 r 2 2 2 3 4 4 aXaXaXaXaXaXaXaXaXaXaXaXaXaXaXaXaXaXaXaXaXaXaXaXaXaXaXaXaXaXaXaXaX",
"aXaXaXaXaXaXaXaXaXaXaXaXaXaXaXaXaXaXaXaXaXaXaXaXaXaXaXaXaX1 aXaXaXaXaXaXaXaXaXaXaXaXaXaXaXaXaXaXaXaXaXaXaXaXaXaXaXaXaXaXaXaXaXaXaXaXaXaXaXaX",
"aXaXaXaXaXaXaXaXaXaXaXaXaXaXaXaXaXaXaXaXaXaXaXaXaXaXaXaXaXaXaXaXaXaXaXaXaXaXaXaXaXaXaXaXaXaXaXaXaXaXaXaXaXaXaXaXaXaXaXaXaXaXaXaXaXaXaXaXaXaX",
"aXaXaXaXaXaXaXaXaXaXaXaXaXaXaXaXaXaXaXaXaXaXaXaXaXaXaXaXaXaXaXaXaXaXaXaXaXaXaXaXaXaXaXaXaXaXaXaXaXaXaXaXaXaXaXaXaXaXaXaXaXaXaXaXaXaXaXaXaXaX",
"aXaXaXaXaXaXaXaXaXaXaXaXaXaXaXaXaXaXaXaXaXaXaXaXaXaXaXaXaXaXaXaXaXaXaXaXaXaXaXaXaXaXaXaXaXaXaXaXaXaXaXaXaXaXaXaXaXaXaXaXaXaXaXaXaXaXaXaXaXaX",
"aXaXaXaXaXaXaXaXaXaXaXaXaXaXaXaXaXaXaXaXaXaXaXaXaXaXaXaXaXaXaXaXaXaXaXaXaXaXaXaXaXaXaXaXaXaXaXaXaXaXaXaXaXaXaXaXaXaXaXaXaXaXaXaXaXaXaXaXaXaX",
"aXaXaXaXaXaXaXaXaXaXaXaXaXaXaXaXaXaXaXaXaXaXaXaXaXaXaXaXaXaXaXaXaXaXaXaXaXaXaXaXaXaXaXaXaXaXaXaXaXaXaXaXaXaXaXaXaXaXaXaXaXaXaXaXaXaXaXaXaXaX"
};
