/* XPM */
static char *result[] = {
/* columns rows colors chars-per-pixel */
"70 70 231 2 ",
"   c #06090B",
".  c #0A0C0D",
"X  c #050608",
"o  c #0B1D1E",
"O  c #071111",
"+  c #131415",
"@  c #191617",
"#  c #151B1C",
"$  c #191D1D",
"%  c #1A1718",
"&  c #311A0D",
"*  c #191F20",
"=  c #0C2525",
"-  c #0F2D2E",
";  c #142223",
":  c #1D2325",
">  c #172C2C",
",  c #183839",
"<  c #1E2F30",
"1  c #212728",
"2  c #252C2E",
"3  c #2A2B2B",
"4  c #272F31",
"5  c #282F31",
"6  c #2A3133",
"7  c #273537",
"8  c #343A3C",
"9  c #313637",
"0  c #3B3226",
"q  c #372418",
"w  c #471A00",
"e  c #491A00",
"r  c #422C1F",
"t  c #562509",
"y  c #6E2900",
"u  c #692905",
"i  c #742D04",
"p  c #782F06",
"a  c #762F09",
"s  c #7A3006",
"d  c #7C330B",
"f  c #76320A",
"g  c #7E3610",
"h  c #7B3B18",
"j  c #6D3311",
"k  c #48392E",
"l  c #4C4439",
"z  c #73472D",
"x  c #383F41",
"c  c #153F40",
"v  c #384647",
"b  c #294C4E",
"n  c #286667",
"m  c #2B7577",
"M  c #1F5151",
"N  c #434C4C",
"B  c #434747",
"V  c #494F51",
"C  c #4C5658",
"Z  c #535A5C",
"A  c #5A5146",
"S  c #6A5749",
"D  c #735747",
"F  c #795D50",
"G  c #6A685A",
"H  c #716654",
"J  c #515F61",
"K  c #5C6263",
"L  c #527177",
"P  c #54767C",
"I  c #4A686D",
"U  c #646868",
"Y  c #697A79",
"T  c #797A79",
"R  c #6D6B69",
"E  c #81350A",
"W  c #87390E",
"Q  c #823710",
"!  c #843A13",
"~  c #8A3D13",
"^  c #873E19",
"/  c #8C421C",
"(  c #84421C",
")  c #954215",
"_  c #974619",
"`  c #A54C1C",
"'  c #A94E1D",
"]  c #AC511F",
"[  c #894826",
"{  c #944A25",
"}  c #984B27",
"|  c #9C522C",
" . c #9A5635",
".. c #8A5132",
"X. c #A14D25",
"o. c #A95427",
"O. c #B85927",
"+. c #AA5A36",
"@. c #AB5D3A",
"#. c #A45834",
"$. c #B25E38",
"%. c #BC6036",
"&. c #BD623A",
"*. c #B56539",
"=. c #AB6937",
"-. c #C15E29",
";. c #CD672F",
":. c #C4612C",
">. c #C76637",
",. c #D46B32",
"<. c #D86E37",
"1. c #D6743D",
"2. c #E4753A",
"3. c #ED7A3E",
"4. c #F07C3F",
"5. c #835B43",
"6. c #9E6A4D",
"7. c #A96748",
"8. c #B66644",
"9. c #BB6946",
"0. c #BB6B49",
"q. c #B76948",
"w. c #BE714B",
"e. c #B6724E",
"r. c #B76F50",
"t. c #B87455",
"y. c #A66F53",
"u. c #B27C64",
"i. c #AC7A65",
"p. c #CD6D44",
"a. c #C56E48",
"s. c #C66D46",
"d. c #C67349",
"f. c #D47346",
"g. c #DA7546",
"h. c #D97748",
"j. c #D87849",
"k. c #C97B58",
"l. c #D3754B",
"z. c #E47A45",
"x. c #EB7D45",
"c. c #EB7E48",
"v. c #E37844",
"b. c #F27E42",
"n. c #F07F48",
"m. c #C07E60",
"M. c #5B8978",
"N. c #B3826D",
"B. c #AE8979",
"V. c #B28673",
"C. c #D88A5B",
"Z. c #D18A50",
"A. c #ED814A",
"S. c #EE8047",
"D. c #F58146",
"F. c #FD8545",
"G. c #F8854A",
"H. c #F48F55",
"J. c #F7A35D",
"K. c #D78A66",
"L. c #D08F6D",
"P. c #E99665",
"I. c #FA9A67",
"U. c #F29E73",
"Y. c #DCB06B",
"T. c #FEAC63",
"R. c #F6A967",
"E. c #F8A477",
"W. c #F3BD74",
"Q. c #FDB871",
"!. c #EAB66E",
"~. c #F9C57A",
"^. c #597C83",
"/. c #567C83",
"(. c #4F7C81",
"). c #617E82",
"_. c #2C8788",
"`. c #329596",
"'. c #2D8F90",
"]. c #35AAAB",
"[. c #3BB8B9",
"{. c #4E8C91",
"}. c #6C959D",
"|. c #6B989F",
" X c #6E888C",
".X c #449FA2",
"XX c #6B9AA2",
"oX c #6A99A1",
"OX c #45A7AA",
"+X c #47B5B7",
"@X c #59AFB3",
"#X c #66A6AD",
"$X c #69A2AA",
"%X c #66A3A7",
"&X c #65ADB4",
"*X c #63B4BA",
"=X c #63B4B9",
"-X c #7BA0A7",
";X c #51A19D",
":X c #5DBDC2",
">X c #61BCC2",
",X c #3CC7C8",
"<X c #3FCFD0",
"1X c #5EC4C9",
"2X c #5BCACE",
"3X c #58C6CA",
"4X c #5CCDD2",
"5X c #52CED1",
"6X c #41DADA",
"7X c #42D2D3",
"8X c #5AD2D6",
"9X c #57DADD",
"0X c #58D8DB",
"qX c #44CACC",
"wX c #6BCED1",
"eX c #55DEE1",
"rX c #58DDE0",
"tX c #44E4E5",
"yX c #48E8E8",
"uX c #56E2E4",
"iX c #54E9EB",
"pX c #53EEF0",
"aX c #52F2F4",
"sX c #4AF1F2",
"dX c #6DE0E1",
"fX c #8B8F8F",
"gX c #8FACB2",
"hX c #F4B583",
"jX c #F6CD92",
"kX c #86CDD1",
"lX c None",
/* pixels */
"lXlXlXlXlXlXlXlXlXlXlXlXlXlXlXlXlXlXlXlXlXlXlXlXlXlXlXlXlXlXlXlXlXlXlXlXlXlXlXlXlXlXlXlXlXlXlXlXlXlXlXlXlXlXlXlXlXlXlXlXlXlXlXlXlXlXlXlXlXlX",
"lXlXlXlXlXlXlXlXlXlXlXlXlXlXlXlXlXlXlXlXlXlXlXlXlXlXlXlXlXlXlXlXlXlXlXlXlXlXlXlXlXlXlXlXlXlXlXlXlXlXlXlXlXlXlXlXlXlXlXlXlXlXlXlXlXlXlXlXlXlX",
"lXlXlXlXlXlXlXlXlXlXlXlXlXlXlXlXlXlXlXlXlXlXlXlXlXlXlXlXlXlXlXlXlXlXlXlXlXlXlXlXlXlXlXlXlXlXlXlXlXlXlXlXlXlXlXlXlXlXlXlXlXlXlXlXlXlXlXlXlXlX",
"lXlXlXlXlXlXlXlXlXlXlXlXlXlXlXlXlXlXlXlXlXlXlXlXlXlXlXlXlXlX; ; $ $ $ $ $ $ # q h h h h h h h h lXlXlXlXlXlXlXlXlXlXlXlXlXlXlXlXlXlXlXlXlXlX",
"lXlXlXlXlXlXlXlXlXlXlXlXlXlXlXlXlXlXlXlXlXlXlXlXlX6 ; ; ; n ].].].].].].].].l j ;.;.1.Z.! ~ ;.+.{ z lXlXlXlXlXlXlXlXlXlXlXlXlXlXlXlXlXlXlXlX",
"lXlXlXlXlXlXlXlXlXlXlXlXlXlXlXlXlXlXlXlXlXlXv ; > `.[.+X[.7XaX1X*X*X*X@X%XH *.2.F.T.R.Z.! ' F.a.[ u ..lXlXlXlXlXlXlXlXlXlXlXlXlXlXlXlXlXlXlX",
"lXlXlXlXlXlXlXlXlXlXlXlXlXlXlXlXlXlXlXv > > `.qXqX@X&X&X&X&X&XeX1X|. XH { <.D.H.~.J.A.8.d ] F.f.| a >.o.h lXlXlXlXlXlXlXlXlXlXlXlXlXlXlXlXlX",
"lXlXlXlXlXlXlXlXlXlXlXlXlXlXlXlXlX- - _.7XqXyXiX=XoX}.XX}.}. X7X+XY z O.4.F.F.J.!.H.c.8.g ` D.g.X.E 4.f.#.g lXlXlXlXlXlXlXlXlXlXlXlXlXlXlXlX",
"lXlXlXlXlXlXlXlXlXlXlXlXlXlXlXc _.tXqX:XXX#XXX@XrX>XoX/. Xb # ; ; $ u O.F.F.T.P.( j.A.e.g ` G.g.X.E 3.j.=.i 0 M lXlXlXlXlXlXlXlXlXlXlXlXlXlX",
"lXlXlXlXlXlXlXlXlXlXlXlXlX7 M +XeXiX:X#XoXoXoXoX/.].'.# + * 2 2 3 r W ;.F.F.Q.Y.( Z.U.L.( ' D.g.X.d 3.j.#.i M..XM lXlXlXlXlXlXlXlXlXlXlXlXlX",
"lXlXlXlXlXlXlXlXlXlXlXlXM m 5X&XoXXX8X4X@XL I C * # ; 2 4 4 5 5 r g 2.F.F.F.Q.Y.y.j.U.L.[ o.F.g.X.E 3.j.@.i i S 3Xm M lXlXlXlXlXlXlXlXlXlXlX",
"lXlXlXlXlXlXlXlXlXlXb n +X1XXX|.oXoXXX;X_.; + # 2 4 4 4 4 4 5 4 r E 4.F.R.R.hXL.y.C.P.d.W ' D.g.X.E 3.j.@.f y z oX3X+Xn v lXlXlXlXlXlXlXlXlX",
"lXlXlXlXlXlXlXlXlX@ c sX0X=X}.}.oX}.I 7 # 2 5 5 4 5 5 5 5 5 5 0 h O.A.I.E.jXY.7.[ ,.D.p.Q ' D.f.} E 3.z.&.p ) | G #X9XyX- @ lXlXlXlXlXlXlXlX",
"lXlXlXlXlXlXlXlX3 n '.4X4X4X1X$X/.v # : 5 5 5 5 4 4 5 5 5 5 3 u ] J.I.E.Q.jXL.+.a ,.D.p.Q ` D.a.{ E 3.x.&.s ;.<.j %X8X2X'.n lXlXlXlXlXlXlXlX",
"lXlXlXlXlXlXlXlX+ ].iXXX}.#X:Xn 7 # 2 5 5 5 5 5 5 5 5 5 3 9 9 z k.E.I.G.I.~.C.+.a ,.D.>.W ` D.a.{ E 3.z.&.s ;.<.f Y }.XXaX'.. lXlXlXlXlXlXlX",
"lXlXlXlXlXlXlXc `.@X=XoX}.oX X$ + 5 5 5 5 5 5 5 5 5 5 6 B K U 5.L.U.H.F.H.~.C.+.a ,.D.p.Q ` D.a.{ E 3.z.&.s ;.<.s Y oXoX*X+X'.7 lXlXlXlXlXlX",
"lXlXlXlXlXlX1 , sX>X}.oXoXP 7 : 1 5 5 5 5 5 5 5 4 4 4 x U R 5.k.H.F.F.J.R.C.l.$.p ,.n.p.Q ' G.f.} E 3.v.%.p ;.x.#.z G oX|.3XyX- 1 lXlXlXlXlX",
"lXlXlXlXlX$ m +X=X5X9X9X#XI X 1 5 5 5 5 5 5 5 6 B N Z Z Z F ..c.G.F.F.T.~.a.d.%.p ,.c.9.Q ' b.g.` E 3.z.%.a ;.c.9.Q S 0X9X2X=X[.m $ lXlXlXlX",
"lXlXlXlXlX. `.pX|.#X&X#Xb : 1 2 5 5 5 5 5 4 5 B K U C U C k E 2.F.F.F.T.W.e.p.%.p ,.c.8.g ` G.g.X.E 3.z.>.a ;.D.p.~ z @X@X#XXXaXm O lXlXlXlX",
"lXlXlXlXlX. '.sX|.}.}.}.; . 5 5 5 5 5 5 5 4 5 K K U V 8 4 r s 2.F.F.F.T.W.w.p.$.p ,.c.8.d ' F.f.X.E 3.z.%.a ;.D.p.~ t ; ^.}.#XaXm . lXlXlXlX",
"lXlXlXlXlX> `.eXoX}.}./.: + 5 5 5 5 5 5 5 5 5 6 N N 5 5 5 r p 2.F.F.3.H.Y.*.@.#.p ,.c.8.E ' n.p.{ E 3.z.&.a ;.D.p.~ w   P }.XXuX_.< lXlXlXlX",
"lXlXlXlX> 7X5X*X@X&X{.+ : 2 4 5 5 4 5 4 5 5 5 5 5 5 5 5 5 r s 2.D.,.` _ _ ) ) ~ y -.,.+.E ] D.a.{ E 3.j.@.a ;.c.9.~ w . {.&X&X*X5X,X; lXlXlX",
"lXlXlX% = tXpXeXuXuXOX  : 4 5 5 5 9 5 4 5 5 5 5 5 5 5 5 5 r p 2.O.W 2.3.v.v.z.>.) ) _ ) y ~ ,.+.^ d g.a.#.a ;.n.q.! e O +XuXrXrXaX6Xo lXlXlX",
"lXlXlX% = tX1XoXXXXXP   : 6 5 5 9 v x 5 5 5 5 5 5 5 5 5 5 r d 2.O.d 4.j.0.a.t.k.z.v.v.g.o._ ` X.E z 0.@.[ a ;.n.9.! e . ^.XXXXXX8X6Xo lXlXlX",
"lXlXlX@ = tX1X}.}.}.L   : 6 5 5 5 9 x 4 5 5 5 5 5 5 5 5 5 r d 2.<.' ;.O.| | i.B.0.9.t.u.j.z.z.z.O._ @.| ) i ' -.| d e   P XX}.}.4X6Xo lXlXlX",
"lXlXlX@ = tX1X}.}.}.L   : 6 5 5 5 5 4 5 5 5 5 5 5 5 5 5 5 r p 2.F.b.O.W y y / | } { 7.B.t.0.0.V.Z.g.j.g.<.o.] o.] d u & ).}.}.}.4X6Xo lXlXlX",
"lXlXlX@ = tXuX2X2X4X.X  : 5 5 5 5 5 4 4 5 5 5 5 5 5 5 5 5 r p 2.F.F.F.Z.=.} d y y y d { { { } i.i.q.8.u.N.j.g.g.g.:._ j %X2X2X2XiX6Xo lXlXlX",
"lXlXlX@ = tXeX1X1X2X{.  : 6 5 5 5 5 5 5 5 5 5 5 5 5 5 5 5 r p 2.F.F.F.T.~.a.$.} i o.' i y y i ^ / [ { 6.N.0.8.r.B.k.O.j %X1X1X1XuX6Xo lXlXlX",
"lXlXlX@ = tX1X}.}.}.L   : 4 5 5 5 5 5 5 5 5 5 5 5 5 5 5 5 r s 2.F.F.F.T.~.w.p.%.p ,.v.X.d ) -.E y y y Q / / /  .u.r.| j Y |.}.}.4X6Xo lXlXlX",
"lXlXlX@ = tX1X}.}.}.L   : 6 5 5 5 5 5 5 5 5 5 5 5 5 5 5 4 r p 2.F.F.F.T.W.d.p.@.p ,.c.8.g ' b.$.^ d -._ y y i p ^ ~ j & ^.|.}.}.4X6Xo lXlXlX",
"lXlXlX@ = tX3XoXXX$XP   : 6 5 5 5 5 5 5 5 5 5 5 5 5 5 5 4 r p 2.F.F.F.T.~.j.s.+.p ,.c.8.g ' n.p.{ E b.p.| a O.-.a i e . {.%X|.|.0X6Xo lXlXlX",
"lXlXlX@ = tXpXeXuXuXOX  : 6 5 5 5 5 5 5 5 5 5 5 5 5 5 5 4 r p 2.F.b.x.J.!.l.0. .p ,.c.8.Q ' n.s.{ E b.v.@.p ;.x.@.d e . OXuXeXeXaX<X< lXlXlX",
"lXlXlX+ = tX4X$X#X&X(.  : 5 5 5 5 5 5 5 5 5 5 5 5 5 5 5 5 r p 2.3.C.C.P.!.e.H l j ,.c.8.E ' G.g.X.E 3.g.@.a ,.n.9.! w O {.#X#X#XdXuXK lXlXlX",
"lXlXlX# = tX1X}.oX}.L X 1 5 5 5 5 5 5 5 5 5 5 5 5 5 5 5 5 r s 2.v.j.C.P.Y.A T fXB d.c.8.Q ' F.g.X.E 3.h.@.a ;.n.9.^ w   ^.-XgXgXkXdXN lXlXlX",
"lXlXlX% = tX1X}.}.}.L X : 5 5 5 5 5 5 5 5 5 5 5 5 5 5 5 5 r s 2.D.b.D.J.Y.v  XfXN d.x.8.g ' D.g.X.E 3.g.@.a ,.n.p.~ e   fXgXgXgXkXdX< lXlXlX",
"lXlXlX@ = tX8X=X&X>X{.. : 5 5 5 5 5 5 5 5 5 5 5 5 5 4 4 6 r s 2.F.F.F.T.~.S Y B.l >.n.9.Q ' F.f.X.E 3.j.$.p ,.n.l.^ j 9 XXkXkX>XrX6Xo lXlXlX",
"lXlXlX@ = tXiX0XrXrXOX  1 5 4 5 5 5 5 5 4 4 5 5 5 5 5 5 4 r a 2.F.F.F.T.!.e.S k a ,.n.p.W ' n.g.X.E 4.v.>.a ;.n.K.y.z C >XkXrXrXpX6X# lXlXlX",
"lXlXlX@ = tX2X}.oX}.L   : 5 5 5 5 5 5 5 4 4 5 5 5 5 5 5 6 r s 2.F.F.F.T.~.w.S x i ,.n.p.Q ' F.f.} E 4.z.>.p ;.H.L.y.S 1 ).-XoX}.8X6Xo lXlXlX",
"lXlXlX@ = tX1X}.}.}.L   : 4 5 5 5 5 5 5 4 4 5 5 5 5 5 5 5 r s 2.F.F.F.T.~.j.z l i ,.b.p.Q X.n.a.{ E 4.z.$.s ;.G.k.y.j O ^.oX}.}.4X6Xo lXlXlX",
"lXlXlX@ ; tX1X}.oXoXL X 1 5 5 5 5 5 5 5 x v 9 5 5 5 5 5 5 r s 2.F.F.F.T.W.l.D x i ,.n.p.W ] n.a.{ E 4.v.$.d ;.n.0./ e   ^.}.}.}.4X6Xo lXlXlX",
"lXlXlX@ = tXiX8X8X0X.X  : 7 5 5 4 5 8 C R U x 4 5 5 5 5 5 r s 2.F.F.F.T.W.d.S 8 i ,.D.p.Q ' b.l.} E n.h.@.p ;.G.s.~ w . OX8X8X8XiX6Xo lXlXlX",
"lXlXlX@ = tX9X>X>X>X{.  : 4 4 5 N Z U Z x 9 4 4 5 5 5 5 5 r s 2.F.F.F.T.~.e.S k a ,.D.p.Q ' F.v.X.^ A.j.$.p ;.n.p.~ w . .X>X>X>XuX6Xo lXlXlX",
"lXlXlX@ = tX1X}.}.}.L   : 9 8 C Z Z x 5 4 4 4 4 5 5 5 5 5 r p 2.F.F.F.T.!.S T T l >.D.p.Q ' n.g.X.W c.k.@.p ;.n.p.~ e . ^.}.}.}.4X6Xo lXlXlX",
"lXlXlX@ = tX1X}.oXoXL   : v C Z 8 5 4 5 4 4 4 4 5 5 5 5 5 r s 2.F.F.F.T.Y.B fXfXN d.c.8.Q ' F.g.X.E x.c.$.p ,.n.f.~ e . ^.}.}.}.4X6Xo lXlXlX",
"lXlXlX@ = tX2XXX$X#X(.  1 5 8 5 4 5 5 5 5 5 5 5 5 5 5 5 5 r p 2.F.F.F.T.!.A T fXB d.z.q.g X.F.g.X.E 3.z.>.d ;.n.p.~ e . ^.$X$X$X8X6Xo lXlXlX",
"lXlXlX@ = tXpXuXuXuXOX  : 5 4 5 5 5 5 5 5 5 5 5 5 5 5 5 5 r p 2.F.F.F.T.~.y.F A h j.H.r.g ' n.a.{ E 4.z.$.a ;.n.s.! e . +XeXeXeXaX6Xo lXlXlX",
"lXlXlX@ = tX2X$XXX$X/.  : 5 5 5 5 5 5 5 5 5 5 5 5 5 5 5 5 r p 2.F.F.F.T.~.w.*.$.[ C.hXm.( ] b.a.{ E 3.g.@.p ;.n.q.! e . {.XX$XXX8X6Xo lXlXlX",
"lXlXlX@ = tX1X}.}.oXL   1 5 5 5 5 5 5 5 5 5 5 5 5 5 5 5 5 r p 2.F.F.F.T.!.w.Z.s.6.Z.U.K.[ X.b.l.{ E x.g.@.p ,.z.+.g e @ ^.oXoXoX8X6Xo lXlXlX",
"lXlXlX@ = tX1X}.}.}.L   : 6 5 5 5 5 5 5 5 5 5 5 5 5 5 5 4 r p 2.F.F.F.T.jXL.L.0.6.C.H.p.E ' F.a.{ E b.>.} a o.-.` _ ~ u G  X}.}.4X6Xo lXlXlX",
"lXlXlX@ = tX0X*X*X1X{.  : 5 5 5 5 5 5 5 5 5 5 5 5 5 5 5 4 r p 2.F.F.G.hXjXL.K.7.( <.A.p.! ' D.+.~ p -.O.` X.` O.v.z.>.^ i G >X=XuX<Xo lXlXlX",
"lXlXlX@ = tXiX8X8X0X.X  1 5 5 5 5 5 5 5 5 5 5 5 5 5 5 5 4 r p 2.F.I.I.hXjXK.d.@.a ,.2.} a ~ O.O.' ' o.;.j.z.z.j.N.t.0.8.s G 5X8XiX<X< lXlXlX",
"lXlXlX@ = tX1X}.|.XXL   : 6 5 5 5 5 5 5 5 5 5 5 5 5 5 5 2 k Q C.E.E.E.T.jXk.#./ i ` O.] O.O.O.g.v.g.g.L.i.0.0.r.V. .} } D Y }.}.2X,Xv lXlXlX",
"lXlXlX@ = tX1X}.}.XXL X : 5 5 5 5 5 5 5 5 5 5 6 5 5 6 6 V H y.P.E.U.O.=.=.{ o.O.O.O.>.g.f.g.l.B.u.8.9.u.i.{ / { / a u & ).XX|.}.2X,X; lXlXlX",
"lXlXlX@ = tX1X}.oXoXL X : 5 5 5 5 5 5 5 5 5 5 6 5 5 6 x U H  .P.j.o.-.:.-.:.1.l.f.g.k.B.r.8.0.u.7./ / ^ ! i y y i i e . P XX|.}.4X6Xo lXlXlX",
"lXlXlX@ = tXiX9X9XrXOXX 1 6 5 5 5 5 5 5 5 5 5 9 V N K Z K S [ x.O.d 3.x.p.l.N.B.q.8.r.i.{ ^ ^ ^ a y y i y y O.>.X.g e O +X0X0X0XpX6Xo lXlXlX",
"lXlXlX@ = tX0X&X*X*X{.  : 5 5 5 5 5 5 5 5 5 6 C K U C K N k s 2.-.W 2.f.8.8.r.y.^ ! ! ! i y i i i s ;.%.| p ;.n.p.~ e . {.=X=X=XrX6Xo lXlXlX",
"lXlXlX% = tX1X}.}.}.L   : 6 5 5 4 6 4 5 5 2 9 K K U v 7 2 r s 2.4.,.` / g g Q d y p p a y _ <.>._ E b.z.%.s ;.D.p./ w . /.}.}.}.4X6Xo lXlXlX",
"lXlXlX% = yX1XoXXXXXL   : 6 5 5 6 4 5 5 4 6 6 7 N 8 3 6 4 r s 2.F.F.3.] d s p p p -.<.$.d ' F.g.X.E 4.z.>.s ;.n.9.! w . ^.XXoX}.8X6Xo lXlXlX",
"lXlXlXlX> ,X;X^.^.^.J X $ 1 1 1 : 1 : : 1 : : : 1 1 : 1 : r s 2.F.F.F.J.Y.>.*.#.p ,.b.p.Q ' D.g.X.E x.z.&.a ;.c.9.! e   I ^.^.^.OX[.> lXlXlX",
"lXlXlXlXlX4 : ; : : # O + + # + @ $ # @ @ + # @ + @ + @ @ & s 2.F.F.F.T.~.l.f.%.p ,.G.p.! ' F.a.{ E c.c.$.f ,.z.@./ t + $ $ : : > 4 lXlXlXlX",
"lXlXlXlXlXlXlXlXlXlXlXlXlXlXlXlXlXlXlXlXlXlXlXlXlXlXlXlXlXlXd 2.F.F.F.T.W.w.p.%.p ,.D.p.! ' D.a.{ ! A.k.@.p O.>.[ lXlXlXlXlXlXlXlXlXlXlXlXlX",
"lXlXlXlXlXlXlXlXlXlXlXlXlXlXlXlXlXlXlXlXlXlXlXlXlXlXlXlXlXlXd 2.F.F.F.T.W.d.a.%.p ,.n.p.! ' D.p.{ E c.f. .h h [ lXlXlXlXlXlXlXlXlXlXlXlXlXlX",
"lXlXlXlXlXlXlXlXlXlXlXlXlXlXlXlXlXlXlXlXlXlXlXlXlXlXlXlXlXlXd 2.F.F.F.T.W.w.p.%.p ,.n.s.E ' D.a.{ p -.o.[ lXlXlXlXlXlXlXlXlXlXlXlXlXlXlXlXlX",
"lXlXlXlXlXlXlXlXlXlXlXlXlXlXlXlXlXlXlXlXlXlXlXlXlXlXlXlXlXlXd 2.F.F.F.T.W.0.s.*.p ,.c.8.g ' b.#.{ [ z lXlXlXlXlXlXlXlXlXlXlXlXlXlXlXlXlXlXlX",
"lXlXlXlXlXlXlXlXlXlXlXlXlXlXlXlXlXlXlXlXlXlXlXlXlXlXlXlXlXlXd 2.F.F.F.T.~.9.9.@.a ,.c.8.g ~ O.{ lXlXlXlXlXlXlXlXlXlXlXlXlXlXlXlXlXlXlXlXlXlX",
"lXlXlXlXlXlXlXlXlXlXlXlXlXlXlXlXlXlXlXlXlXlXlXlXlXlXlXlXlXlXd 2.F.F.F.T.W.w.q.@.i ,.2.{ ..[ lXlXlXlXlXlXlXlXlXlXlXlXlXlXlXlXlXlXlXlXlXlXlXlX",
"lXlXlXlXlXlXlXlXlXlXlXlXlXlXlXlXlXlXlXlXlXlXlXlXlXlXlXlXlXlXs 2.F.F.F.T.W.d.q.+.p ) #.lXlXlXlXlXlXlXlXlXlXlXlXlXlXlXlXlXlXlXlXlXlXlXlXlXlXlX",
"lXlXlXlXlXlXlXlXlXlXlXlXlXlXlXlXlXlXlXlXlXlXlXlXlXlXlXlXlXlXd 2.F.D.D.R.!.*.| [ lXlXlXlXlXlXlXlXlXlXlXlXlXlXlXlXlXlXlXlXlXlXlXlXlXlXlXlXlXlX",
"lXlXlXlXlXlXlXlXlXlXlXlXlXlXlXlXlXlXlXlXlXlXlXlXlXlXlXlXlXlXlX} _ _ / _ } / ..lXlXlXlXlXlXlXlXlXlXlXlXlXlXlXlXlXlXlXlXlXlXlXlXlXlXlXlXlXlXlX",
"lXlXlXlXlXlXlXlXlXlXlXlXlXlXlXlXlXlXlXlXlXlXlXlXlXlXlXlXlXlXlXlXlXlXlXlXlXlXlXlXlXlXlXlXlXlXlXlXlXlXlXlXlXlXlXlXlXlXlXlXlXlXlXlXlXlXlXlXlXlX"
};
