/* XPM */
static char *result[] = {
/* columns rows colors chars-per-pixel */
"70 70 250 2 ",
"   c #2B121F",
".  c #330F1E",
"X  c #3C0D28",
"o  c #2C1625",
"O  c #331526",
"+  c #3B1425",
"@  c #331926",
"#  c #3C162A",
"$  c #341B2B",
"%  c #3B1A2B",
"&  c #361728",
"*  c #3B1C33",
"=  c #391A36",
"-  c #2E1837",
";  c #3B2334",
":  c #3C2539",
">  c #3E202F",
",  c #480B26",
"<  c #5A0A2A",
"1  c #44142A",
"2  c #4B152A",
"3  c #431C2D",
"4  c #491728",
"5  c #531B2D",
"6  c #5B1B2C",
"7  c #521529",
"8  c #431C31",
"9  c #491935",
"0  c #541C33",
"q  c #591835",
"w  c #470F30",
"e  c #64082C",
"r  c #6B1C2A",
"t  c #66182D",
"y  c #741A2B",
"u  c #670B33",
"i  c #780833",
"p  c #691A37",
"a  c #751B33",
"s  c #741A39",
"d  c #422334",
"f  c #43253A",
"g  c #452A3D",
"h  c #4A263A",
"j  c #5B243C",
"k  c #582237",
"l  c #5F2026",
"z  c #6A222A",
"x  c #7D222D",
"c  c #6B233B",
"v  c #682437",
"b  c #74243B",
"n  c #7C243A",
"m  c #732A3D",
"M  c #7C2C3C",
"N  c #762635",
"B  c #7D313D",
"V  c #391C47",
"C  c #2D1451",
"Z  c #3D2347",
"A  c #3D2458",
"S  c #3E335A",
"D  c #251872",
"F  c #341C71",
"G  c #3D2C68",
"H  c #3B3578",
"J  c #382A6F",
"K  c #441A42",
"L  c #511F41",
"P  c #7A1B43",
"I  c #432C44",
"U  c #4C2A44",
"Y  c #432B4D",
"T  c #482748",
"R  c #562848",
"E  c #493148",
"W  c #442956",
"Q  c #473358",
"!  c #552E4D",
"~  c #632A43",
"^  c #6A2744",
"/  c #7A2B44",
"(  c #772846",
")  c #69334B",
"_  c #7B3449",
"`  c #693757",
"'  c #7A3B53",
"]  c #743B57",
"[  c #452B65",
"{  c #463369",
"}  c #453576",
"|  c #4F3175",
" . c #6A3C73",
".. c #733C6D",
"X. c #461F67",
"o. c #784358",
"O. c #79424E",
"+. c #744776",
"@. c #794761",
"#. c #850B39",
"$. c #891A32",
"%. c #87282E",
"&. c #842B3C",
"*. c #862837",
"=. c #932C38",
"-. c #86333D",
";. c #95343D",
":. c #832C44",
">. c #872A46",
",. c #8B3543",
"<. c #873749",
"1. c #953A45",
"2. c #94344A",
"3. c #983947",
"4. c #8B3B54",
"5. c #863954",
"6. c #973B54",
"7. c #8C2B4A",
"8. c #AB3C4B",
"9. c #A43A47",
"0. c #B13E4D",
"q. c #A52A55",
"w. c #A83A55",
"e. c #B33A59",
"r. c #9C3275",
"t. c #AF386B",
"y. c #A11D50",
"u. c #9B414A",
"i. c #894559",
"p. c #9C4555",
"a. c #9D455A",
"s. c #9C4B5B",
"d. c #944658",
"f. c #914A50",
"g. c #A3434D",
"h. c #AB424D",
"j. c #A74647",
"k. c #B5464D",
"l. c #BA474C",
"z. c #B5494E",
"x. c #BB494E",
"c. c #BB4745",
"v. c #A44554",
"b. c #AB4553",
"n. c #A54B55",
"m. c #AC4A53",
"M. c #A34B5B",
"N. c #AC4C5B",
"B. c #A74559",
"V. c #B44C54",
"C. c #BC4C53",
"Z. c #B44D5B",
"A. c #BB4D5A",
"S. c #B64557",
"D. c #AC535A",
"F. c #B65255",
"G. c #BA5355",
"H. c #B6525A",
"J. c #BA525B",
"K. c #BF5B5B",
"L. c #894863",
"P. c #9C4D62",
"I. c #924A66",
"U. c #8B5369",
"Y. c #975568",
"T. c #8E5375",
"R. c #AB4E63",
"E. c #A84766",
"W. c #B44E63",
"Q. c #BA4969",
"!. c #A75568",
"~. c #B45165",
"^. c #BC5462",
"/. c #B85868",
"(. c #A75775",
"). c #BA5A74",
"_. c #B14976",
"`. c #9C6276",
"'. c #A56368",
"]. c #A96576",
"[. c #BC6476",
"{. c #BE6169",
"}. c #C1494E",
"|. c #C14D55",
" X c #C24E5A",
".X c #C4495C",
"XX c #C25057",
"oX c #C3535B",
"OX c #C9555E",
"+X c #C45A5D",
"@X c #C9595E",
"#X c #C34A68",
"$X c #C45561",
"%X c #C55A62",
"&X c #CA5B63",
"*X c #C55C6A",
"=X c #CC5D6B",
"-X c #C95567",
";X c #D35C66",
":X c #D45C69",
">X c #D65B69",
",X c #C34B71",
"<X c #C85A76",
"1X c #D45D73",
"2X c #CC6267",
"3X c #CC616B",
"4X c #C66368",
"5X c #D3636C",
"6X c #DB646A",
"7X c #D8676C",
"8X c #C86777",
"9X c #DB6B74",
"0X c #D76673",
"qX c #D77178",
"wX c #CA717F",
"eX c #E16B73",
"rX c #E37279",
"tX c #393481",
"yX c #30318F",
"uX c #4D3A8A",
"iX c #6F518E",
"pX c #5D4695",
"aX c #9C3E87",
"sX c #944B94",
"dX c #905590",
"fX c #A64C8A",
"gX c #AA5687",
"hX c #996396",
"jX c #906791",
"kX c #B46A85",
"lX c #A36A9A",
"zX c #B0718E",
"xX c #9766A4",
"cX c #B577A3",
"vX c #CA6C84",
"bX c #D56B84",
"nX c #C8768B",
"mX c #D47990",
"MX c #C47DA0",
"NX c #B5879D",
"BX c #C7869B",
"VX c #DB8497",
"CX c #CD92A6",
"ZX c #E68FA4",
"AX c #F0ACBB",
"SX c #DA96A5",
"DX c #EBB7C4",
"FX c #DAB5C6",
"GX c #F3C1CA",
"HX c None",
/* pixels */
"HXHXHXHXHXHXHXHXHXHXHXHXHXHXHXHXHXHXHXHXHXHXHXHXHXHXHXHXHXHXHXHXHXHXHXHXHXHXHXHXHXHXHXHXHXHXHXHXHXHXHXHXHXHXHXHXHXHXHXHXHXHXHXHXHXHXHXHXHXHX",
"HXHXHXHXHXHXHXHXHXHXHXHXHXHXHXHXHXHXHXHXHXHXHXHXHXHXHXHXHXHXHXHXHXHXHXHXHXHXHXHXHXHXHXHXHXHXHXHXHXHXHXHXHXHXHXHXHXHXHXHXHXHXHXHXHXHXHXHXHXHX",
"HXHXHXHXHXHXHXHXHXHXHXHXHXHXHXHXHXHXHXHXHXHXHXHXHXHXHXHXHXHXHXHXHXHXHXH tXtXHXHXHXHXHXHXHXHXHXHXHXHXHXHXHXHXHXHXHXHXHXHXHXHXHXHXHXHXHXHXHXHX",
"HXHXHXHXHXHXHXHXHXHXHXHXHXHXHXHXHXHXHXHXHXHXHXHXHXHXHXHXHXHXtXH G G G G G G { } H H H H HXHXHXHXHXHXHXHXHXHXHXHXHXHXHXHXHXHXHXHXHXHXHXHXHXHX",
"HXHXHXHXHXHXHXHXHXHXHXHXHXHXHXHXHXHXHXHXHXHXHXHXHXHXHXuX} { [ A A W Z Y Y Q Q Q S S S S { } HXHXHXHXHXHXHXHXHXHXHXHXHXHXHXHXHXHXHXHXHXHXHXHX",
"HXHXHXHXHXHXHXHXHXHXHXHXHXHXHXHXHXHXHXHXHXHXHXHXHXHX{ [ Q Y Y T I I I g I I E : g E g E Q Q Q { HXHXHXHXHXHXHXHXHXHXHXHXHXHXHXHXHXHXHXHXHXHX",
"HXHXHXHXHXHXHXHXHXHXHXHXHXHXHXHXHXHXHXHXHXHXHXHX} Q T U T h f f g g g g g g : : ; ; ; ; E E E Q { } HXHXHXHXHXHXHXHXHXHXHXHXHXHXHXHXHXHXHXHX",
"HXHXHXHXHXHXHXHXHXHXHXHXHXHXHXHXHXHXHXHXHXHX} | { ! ! U f f f f d : g g g : ; > ; $ $ > ; g g E Q { { HXHXHXHXHXHXHXHXHXHXHXHXHXHXHXHXHXHXHX",
"HXHXHXHXHXHXHXHXHXHXHXHXHXHXHXHXHXHXHXHXHXuX{ Q ! ! ! U g g d d d ; d f d ; % & @ $ o - ; : : g E Q A [ HXHXHXHXHXHXHXHXHXHXHXHXHXHXHXHXHXHX",
"HXHXHXHXHXHXHXHXHXHXHXHXHXHXHXHXHXHXHXHX} Q T U E ! U h h g d d d d d d d % & @ @ @ @ @ $ ; : g Z Z A G H HXHXHXHXHXHXHXHXHXHXHXHXHXHXHXHXHX",
"HXHXHXHXHXHXHXHXHXHXHXHXHXHXHXHXHXHXHX} [ T T U U U g f d 3 3 d d d d d d % O O O O @ @ $ ; ; : : : Z A G tXHXHXHXHXHXHXHXHXHXHXHXHXHXHXHXHX",
"HXHXHXHXHXHXHXHXHXHXHXHXHXHXHXHXHXHXuX[ T T T U h g d ; 3 > > > d 3 d d d # + + # + @ @ @ $ ; $ ; : Z Z X.F HXHXHXHXHXHXHXHXHXHXHXHXHXHXHXHX",
"HXHXHXHXHXHXHXHXHXHXHXHXHXHXHXHXHX} W V V 9 I 8 d > % % % 3 3 > 5 5 0 0 k z v N P p t , # $ $ > ; ; Z Z A D J HXHXHXHXHXHXHXHXHXHXHXHXHXHXHX",
"HXHXHXHXHXHXHXHXHXHXHXHXHXHXHXHX[ W V 9 8 = * * % & & % 3 4 5 k v B ,.1.3.9.8.k.0.9.7.u 1 % % & $ * ; - A C D HXHXHXHXHXHXHXHXHXHXHXHXHXHXHX",
"HXHXHXHXHXHXHXHXHXHXHXHXHXHXHX| W V = = = # # # # # 3 0 k m <.d.N.Z.A.|.|.|.}.}.x.c.9.=.6 # & @ $ $ - = V C J HXHXHXHXHXHXHXHXHXHXHXHXHXHXHX",
"HXHXHXHXHXHXHXHXHXHXHXHXHXHXHXX.K = 9 = X 9 0 j v v m ,.p.D./.%X2X@XOX|.}.}.}.c.x.c.0.;.b 4 3 & $ $ $ - - C D HXHXHXHXHXHXHXHXHXHXHXHXHXHXHX",
"HXHXHXHXHXHXHXHXHXHXHXHXHXHXuX .] ' ' 5.5.4.6.6.p.B.Z.J.%X=X=X&X@X@XOX|.}.}.}.x.}.c.c.8.&.v 5 3 $ $ $ - - C D HXHXHXHXHXHXHXHXHXHXHXHXHXHXHX",
"HXHXHXHXHXHXHXHXHXHXHXHXHXpXsXzXkXvXkX[.[./.^./.+X@X$X&X&X&X=X&X@XoXoXXX}.}.}.x.c.l.c.l.3.n k 2 * * * = = V F yXHXHXHXHXHXHXHXHXHXHXHXHXHXHX",
"HXHXHXHXHXHXHXHXHXHXHXHXHXxXcXVXmXbXbXbX8X3X$X$XOXOX@X@X@X&X&X%X@X+XoXXXXX}.x.}.x.}.x.0.9.*.p 5 w 9 9 9 K C tXyXHXHXHXHXHXHXHXHXHXHXHXHXHXHX",
"HXHXHXHXHXHXHXHXHXHXHXHXHXcXVXmXmXqXbX8X8X%X+XOXOXOX@X@X&X@X%X&X@XoXXXXX|.x.x.x.x.x.x.0.9.&.m p q q 9 K K W J yXHXHXHXHXHXHXHXHXHXHXHXHXHXHX",
"HXHXHXHXHXHXHXHXHXHXHXHXhXcXmXnXbX8X3X=X%XOXoXoX XOXOX-X%X&X2X&X@XoXG.oXXXx.x.z.x.z.x.z.8.,.M p L L q L R ! | pXHXHXHXHXHXHXHXHXHXHXHXHXHXHX",
"HXHXHXHXHXHXHXHXHXHXHXHXlXMXmXvX8X4X4X%XoXoXoXXXoXoXOXoX%X&X%X%X@XoXoX|.C.x.x.z.z.x.z.V.v.2.M m ^ P R R ! ` | uXHXHXHXHXHXHXHXHXHXHXHXHXHXHX",
"HXHXHXHXHXHXHXHXHXHXHXxXzXnXvXvX8X*X+XG.XX|.G.|.|. XoXoX$X%X%X%X$XoX XC.C.x.z.k.k.z.V.z.b.,.:.( ^ ^ ~ ~ ` `  .pXHXHXHXHXHXHXHXHXHXHXHXHXHXHX",
"HXHXHXHXHXHXHXHXHXHXHXlXkXkX[.<X*XJ.C.C.x.x.|.C.|.C.|.XXoXOX$XoX X X|.C.x.z.k.k.k.z.z.z.v.2.>.( P ~ ^ ~ ) ` +.pXHXHXHXHXHXHXHXHXHXHXHXHXHXHX",
"HXHXHXHXHXHXHXHXHXHXHXlXkX[././.^.A.C.x.x.}.l.x.C.|.|.|.XXoX+XoXA. XC.C.x.k.k.k.k.k.z.z.h.2.>.>._ _ ' ] o.@.dXiXHXHXHXHXHXHXHXHXHXHXHXHXHXHX",
"HXHXHXHXHXHXHXHXHXHXxXzX[./.J.Z.V.x.l.l.l.x.}.x.|.|.|.|. X XA.A.A.C.C.C.x.k.k.z.z.z.V.z.m.w.6.4.' ' i.i.@.@.U.iXHXHXHXHXHXHXHXHXHXHXHXHXHXHX",
"HXHXHXHXHXHXHXHXHXHXhXgX~.R.V.V.k.k.l.l.x.x.|.x.C.C.|. X XoXoXA.A.A.V.V.x.l.k.V.k.k.V.V.V.N.B.a.6.i.i.f.U.U.T.iXHXHXHXHXHXHXHXHXHXHXHXHXHXHX",
"HXHXHXHXHXHXHXHXHXHXhX(.R.N.S.b.k.S.x.x.x.}.x.x.|.|. X XoXoXoXJ.J.C.C.C.x.V.x.x.z.V.C.A.Z.Z.Z.M.s.P.s.d.Y.Y.T.jXHXHXHXHXHXHXHXHXHXHXHXHXHXHX",
"HXHXHXHXHXHXHXHXHXHXdX!.W.N.V.V.S.C.C.C.C.C.|.|.|.oXoX@X&X&X&X+X^.%X/.H.Z.C.V.x.C.C.V.Z.Z.Z.m.D.M.s.s.s.P.Y.`.dXxXHXHXHXHXHXHXHXHXHXHXHXHXHX",
"HXHXHXHXHXHXHXHXHXHXhX(.R.Z.Z.H.J.oXoXC.XXXXoXXXXXOX&X5X0X5X7X2X2X4X/.K.J.C.x.V.V.V.C.H.Z.Z.H.D.n.s.M.P.P.P.!.!.gXgXfXHXHXHXHXHXHXHXHXHXHXHX",
"HXHXHXHXHXHXHXHXHXHXhX!.~./.K.%X%XOX+XoXOXoXOX@XOX&X5X8XqXqX7X4X4X/.D.D.H.F.F.V.V.C.A.A.J.H.H.D.n.n.s.M.n.M.Z.A.W.t.r.aXHXHXHXHXHXHXHXHXHXHX",
"HXHXHXHXHXHXHXHXHXHXhX(.).{.4X4X&X@X&X&X@X@X%X&X:X5X3X3X8X).'.!.f.i.i.i.f.s.m.F.A.J.J.J.J.J.H.F.D.n.n.n.n.V.A.A.S.Q.t.aXsXHXHXHXHXHXHXHXHXHX",
"HXHXHXHXHXHXHXHXHXHXhXkX[.[.4X2X&X&X&X&X&X-X&X-X*X4X/.!.d.' ) j k h j ^ ( >.6.B.J.J.A.^.H.J.H.Z.m.m.m.m.m.V.C.A..X-X,Xt.aXHXHXHXHXHXHXHXHXHX",
"HXHXHXHXHXHXHXHXHXHXhXkX].{.'./.*X&X@X-X$X$X/.^.~.P._ v 7 2 9 5 j ^ ( _ 5.<.6.B.N.Z.J.J.J.A.J.Z.Z.Z.V.V.V.A.Z.S.-X1X0XQ.aXHXHXHXHXHXHXHXHXHX",
"HXHXHXHXHXHXHXHXHXHX+.] o.] O.i.a.Z.W.A.A.S.b.B.4.M t 5 2 2 5 k v m _ _ <.6.d.p.m.V.J.J.J.J.J.H.Z.Z.F.V.V.S.w.q.e.$X,X,XfXHXHXHXHXHXHXHXHXHX",
"HXHXHXHXHXHXHXHXHXHX[ K % % 3 k ^ <.6.w.w.w.2.>.n a p 6 0 2 5 5 0 0 5 k v / 4.6.g.m.J.H.J.H.Z.J.J.H.Z.H. X.Xe.y.q.q.S.Q.fXHXHXHXHXHXHXHXHXHX",
"HXHXHXHXHXHXHXHXHXHX[ R 1 # # # 2 v ( 7.2.=.$.*.n b p 6 5 4 k j h + + 1 2 t s 7.9.m.G.H.H.H.H.H.J.J.J.J.%X3X:X,Xq.q.w.Q.fXHXHXHXHXHXHXHXHXHX",
"HXHXHXHXHXHXHXHXHXHX .] R # + O # 1 v / >.=.=.&.n b t 6 7 k O.o.j X + 2 t p :.2.v.m.F.G.G.K.H.H.A.J.H./.4XvXZXZXvXe.e.t.sXHXHXHXHXHXHXHXHXHX",
"HXHXHXHXHXHXHXHXHXHXiX( 0 8 8 @   O 1 v ,.j.8.9.2.>.n r t b f.f.N 7 l B 3.3.w.n.V.F.G.H.H.H.H.H.H.Z.H.~.[.BXAXAXbX,XQ._.sXHXHXHXHXHXHXHXHXHX",
"HXHXHXHXHXHXHXHXHXHX .` R @.` $     + v u.G.oXx.8.0.3.>.s &.-.u.-.B -.u.j.j.F.F.K.G.G.F.K.G.H.H.V.D.Z.~.].BXAXAXbX#X#X_.sXHXHXHXHXHXHXHXHXHX",
"HXHXHXHXHXHXHXHXHXHX .5.L.T.@.= o @ 4 _ F.&X&X|.|.C.b.w.7.>.>.,.-.-.,.;.j.F.K.+XK.K.K.G.G.F.F.V.m.D.H.(.kXSXGXZX,X#X_.fXHXHXHXHXHXHXHXHXHXHX",
"HXHXHXHXHXHXHXHXHXHX..I.L.U.] 0 3 3 0 <.K.2X>XOXOXOX@XA.b.2.7.( -.,.1.j.G.4X2X4X+XoXXXG.V.F.m.N.N.N.R.].BXDXDXmX<X,XfXHXHXHXHXHXHXHXHXHXHXHX",
"HXHXHXHXHXHXHXHXHXHX .I.L.5.( p 0 5 ^ E.2X7X6X5X@X;X;X;X&XJ.e.w.6.w.Z.*X2X5X5X2X@X+X+XG.V.m.m.m.R.!.Y.`.CXGXZX8XvXgXHXHXHXHXHXHXHXHXHXHXHXHX",
"HXHXHXHXHXHXHXHXHXHX+.I.I.4.:.s s P 6.Q.6X6X6X6X;X;X;X5X5X:X:X=X<X=X3X5X5X5X2X&X@X+XG.C.F.D.m.D.M.Y.U.jXFXAXvX_.HXHXHXHXHXHXHXHXHXHXHXHXHXHX",
"HXHXHXHXHXHXHXHXHXHX+.I.a.d.<./ 7.6.E.Q.;X7X7X6X6X;X;X5X1X6X0X0X9X9X9X0X3X2X2X@X+XXXG.z.m.m.n.n.n.Y.U.NXFXMXt.HXHXHXHXHXHXHXHXHXHXHXHXHXHXHX",
"HXHXHXHXHXHXHXHXHXHX+.Y.d.a.B.E.E.~.Q.-X6X6X6X6X>X>X;X;X:X6X1X0X9X9X9X7X2X2X&X@X+XG.F.z.m.m.n.n.M.d.`.NXBX(.HXHXHXHXHXHXHXHXHXHXHXHXHXHXHXHX",
"HXHXHXHXHXHXHXHXHXHXHXU.M.R.R.Q._./.$X3XeXrX6X6X>X>X-X$X$X$X-X:X1X7X7X7X5X;XOXoXG.F.z.m.m.n.n.n.s.f.`.].Y.HXHXHXHXHXHXHXHXHXHXHXHXHXHXHXHXHX",
"HXHXHXHXHXHXHXHXHXHXHXU.!.~.~./.Q.~.=X7XrXrXeX6X>X>X.XS.e.e.e..XOX;X&X&X@XOX.XA.z.m.m.m.j.n.n.s.Y.Y.].`.HXHXHXHXHXHXHXHXHXHXHXHXHXHXHXHXHXHX",
"HXHXHXHXHXHXHXHXHXHXHXT.!.~.W.~.Q.W.=X9XqXrXeX6X>X>X>X.X0.w.w.e.S.C.G.oX X|.A.V.m.m.n.h.v.v.v.a.f.'.`.s.HXHXHXHXHXHXHXHXHXHXHXHXHXHXHXHXHXHX",
"HXHXHXHXHXHXHXHXHXHXHXT.!.E.W.Z.b.W.<X0XbX9X6X1X1X>X-X.X0.8.8.9.8.k.V.C.A.A.V.m.m.j.v.v.v.n.a.a.s.'.'.HXHXHXHXHXHXHXHXHXHXHXHXHXHXHXHXHXHXHX",
"HXHXHXHXHXHXHXHXHXHXHXHXT.R.b.b.v.R.^.#X-X*X$XA.Z.C.e.0.S.k.h.9.8.8.h.m.m.b.m.n.v.v.v.p.v.d.d.f.s.'.D.HXHXHXHXHXHXHXHXHXHXHXHXHXHXHXHXHXHXHX",
"HXHXHXHXHXHXHXHXHXHXHXHXT.P.B.w.v.E.R.B.w.2.7.:.&.>.3.z.C.z.k.j.;.9.j.g.j.g.g.v.v.u.v.p.p.d.i.i.'.'.HXHXHXHXHXHXHXHXHXHXHXHXHXHXHXHXHXHXHXHX",
"HXHXHXHXHXHXHXHXHXHXHXHXHXI.a.B.a.P.6.5.( ( p p p _ f.M.V.S.m.8.j.1.3.u.u.j.u.u.3.u.p.6.f.<.5.i.'.HXHXHXHXHXHXHXHXHXHXHXHXHXHXHXHXHXHXHXHXHX",
"HXHXHXHXHXHXHXHXHXHXHXHXHXU.I.a.I.4.' ~ 0 q q w 7 j _ 6.6.6.<.:.&.-.;.;.;.1.1.1.1.1.1.<.<.<.' Y.'.HXHXHXHXHXHXHXHXHXHXHXHXHXHXHXHXHXHXHXHXHX",
"HXHXHXHXHXHXHXHXHXHXHXHXHXHXI.4.( ^ 9 + + 1 1 1 , 7 t s b P q 5 , 7 N &.-.;.;.1.;.-.<.<._ _ i.`.HXHXHXHXHXHXHXHXHXHXHXHXHXHXHXHXHXHXHXHXHXHX",
"HXHXHXHXHXHXHXHXHXHXHXHXHXHX5.( 9 X X X , q P ( p p p p p t w , . X < a N -.-.-.:.:./ _ ) o.Y.HXHXHXHXHXHXHXHXHXHXHXHXHXHXHXHXHXHXHXHXHXHXHX",
"HXHXHXHXHXHXHXHXHXHXHXHXHXHXHXR w X w u P P #.P y e u e < , , , 7 < e a a &.B M M ( c ~ ) @.HXHXHXHXHXHXHXHXHXHXHXHXHXHXHXHXHXHXHXHXHXHXHXHX",
"HXHXHXHXHXHXHXHXHXHXHXHXHXHXHXh 0 9 L P P u u < < e i i i i y N y y y a n x N N N v 0 j o.L.HXHXHXHXHXHXHXHXHXHXHXHXHXHXHXHXHXHXHXHXHXHXHXHX",
"HXHXHXHXHXHXHXHXHXHXHXHXHXHXHXHX~ ( ( P u u i i i #.#.#.$.$.%.%.%.%.y r z z N z t 5 k ] o.HXHXHXHXHXHXHXHXHXHXHXHXHXHXHXHXHXHXHXHXHXHXHXHXHX",
"HXHXHXHXHXHXHXHXHXHXHXHXHXHXHXHX) ] 5.7.P P P #.#.i i i $.%.=.%.%.a y t r r v l 7 0 ) ) HXHXHXHXHXHXHXHXHXHXHXHXHXHXHXHXHXHXHXHXHXHXHXHXHXHX",
"HXHXHXHXHXHXHXHXHXHXHXHXHXHXHXHXHXo.i.5.7.P p u e e u u x &.&.M x y r r r t 6 4 4 j R HXHXHXHXHXHXHXHXHXHXHXHXHXHXHXHXHXHXHXHXHXHXHXHXHXHXHX",
"HXHXHXHXHXHXHXHXHXHXHXHXHXHXHXHXHXHXi.4.' ^ p < < < u p %.%.%.%.%.%.x x r 6 4 4 k 8 HXHXHXHXHXHXHXHXHXHXHXHXHXHXHXHXHXHXHXHXHXHXHXHXHXHXHXHX",
"HXHXHXHXHXHXHXHXHXHXHXHXHXHXHXHXHXHXo.5._ ( ( P a s n *.=.=.=.=.%.%.x l 7 1 + 3 # HXHXHXHXHXHXHXHXHXHXHXHXHXHXHXHXHXHXHXHXHXHXHXHXHXHXHXHXHX",
"HXHXHXHXHXHXHXHXHXHXHXHXHXHXHXHXHXHXHX5.' _ >.$.=.=.;.3.9.;.=.%.%.%.z 4 . o @ HXHXHXHXHXHXHXHXHXHXHXHXHXHXHXHXHXHXHXHXHXHXHXHXHXHXHXHXHXHXHX",
"HXHXHXHXHXHXHXHXHXHXHXHXHXHXHXHXHXHXHX] _ / &.*.-.;.1.1.1.,.&.-.N l 4 .   HXHXHXHXHXHXHXHXHXHXHXHXHXHXHXHXHXHXHXHXHXHXHXHXHXHXHXHXHXHXHXHXHX",
"HXHXHXHXHXHXHXHXHXHXHXHXHXHXHXHXHXHXHXHXHX( m m N M M M b v k 0 4 +   HXHXHXHXHXHXHXHXHXHXHXHXHXHXHXHXHXHXHXHXHXHXHXHXHXHXHXHXHXHXHXHXHXHXHX",
"HXHXHXHXHXHXHXHXHXHXHXHXHXHXHXHXHXHXHXHXHXHXHXHXHXHXHXHXHXHXHXHXHXHXHXHXHXHXHXHXHXHXHXHXHXHXHXHXHXHXHXHXHXHXHXHXHXHXHXHXHXHXHXHXHXHXHXHXHXHX",
"HXHXHXHXHXHXHXHXHXHXHXHXHXHXHXHXHXHXHXHXHXHXHXHXHXHXHXHXHXHXHXHXHXHXHXHXHXHXHXHXHXHXHXHXHXHXHXHXHXHXHXHXHXHXHXHXHXHXHXHXHXHXHXHXHXHXHXHXHXHX",
"HXHXHXHXHXHXHXHXHXHXHXHXHXHXHXHXHXHXHXHXHXHXHXHXHXHXHXHXHXHXHXHXHXHXHXHXHXHXHXHXHXHXHXHXHXHXHXHXHXHXHXHXHXHXHXHXHXHXHXHXHXHXHXHXHXHXHXHXHXHX",
"HXHXHXHXHXHXHXHXHXHXHXHXHXHXHXHXHXHXHXHXHXHXHXHXHXHXHXHXHXHXHXHXHXHXHXHXHXHXHXHXHXHXHXHXHXHXHXHXHXHXHXHXHXHXHXHXHXHXHXHXHXHXHXHXHXHXHXHXHXHX"
};
