/* XPM */
static char *_97d2fa49cf64d9195688ea6612ed007O9TyGQntfzpv9pq3[] = {
/* columns rows colors chars-per-pixel */
"70 70 252 2 ",
"   c None",
".  c #2B131F",
"X  c #330F1E",
"o  c #3C0D28",
"O  c #2C1625",
"+  c #331526",
"@  c #3B1425",
"#  c #331926",
"$  c #3C162A",
"%  c #341B2B",
"&  c #3B1A2B",
"*  c #361728",
"=  c #3B1C33",
"-  c #391A36",
";  c #2E1837",
":  c #3B2334",
">  c #3C2539",
",  c #3E202F",
"<  c #480B26",
"1  c #5A0A2A",
"2  c #44142A",
"3  c #4B152A",
"4  c #431C2D",
"5  c #491728",
"6  c #531B2D",
"7  c #5B1B2C",
"8  c #521529",
"9  c #431C31",
"0  c #491935",
"q  c #541C33",
"w  c #591835",
"e  c #470F30",
"r  c #64082C",
"t  c #6B1C2A",
"y  c #66182D",
"u  c #741A2B",
"i  c #670B33",
"p  c #780833",
"a  c #641C3A",
"s  c #6A1A37",
"d  c #751B33",
"f  c #741A39",
"g  c #422334",
"h  c #43253A",
"j  c #452A3D",
"k  c #4A263A",
"l  c #5B243C",
"z  c #582237",
"x  c #5F2026",
"c  c #6A222A",
"v  c #7D222D",
"b  c #6B233B",
"n  c #682437",
"m  c #74243B",
"M  c #7C243A",
"N  c #732A3D",
"B  c #7C2C3C",
"V  c #762635",
"C  c #7D313D",
"Z  c #391C47",
"A  c #2D1451",
"S  c #3D2347",
"D  c #3D2458",
"F  c #3E335A",
"G  c #251872",
"H  c #331B71",
"J  c #3D2C68",
"K  c #3B357A",
"L  c #37286F",
"P  c #441A42",
"I  c #511F41",
"U  c #7A1B43",
"Y  c #432C44",
"T  c #4C2A44",
"R  c #432B4D",
"E  c #482748",
"W  c #562848",
"Q  c #493148",
"!  c #442956",
"~  c #473358",
"^  c #552E4D",
"/  c #632A43",
"(  c #6A2744",
")  c #7B2B44",
"_  c #772846",
"`  c #69344B",
"'  c #7B3449",
"]  c #693757",
"[  c #7A3B53",
"{  c #753B57",
"}  c #452B65",
"|  c #43326C",
" . c #493466",
".. c #453576",
"X. c #4F3175",
"o. c #6E3C6F",
"O. c #461F67",
"+. c #784358",
"@. c #79424E",
"#. c #744675",
"$. c #794761",
"%. c #850B39",
"&. c #891A32",
"*. c #87282E",
"=. c #842B3C",
"-. c #862837",
";. c #932C38",
":. c #86333D",
">. c #95343D",
",. c #832C43",
"<. c #872A46",
"1. c #8B3543",
"2. c #873749",
"3. c #953A45",
"4. c #94344A",
"5. c #983947",
"6. c #8B3B54",
"7. c #863854",
"8. c #973B54",
"9. c #8C2B4A",
"0. c #AB3C4B",
"q. c #A43A47",
"w. c #B13E4D",
"e. c #A52A55",
"r. c #A83A55",
"t. c #B33A59",
"y. c #9C3275",
"u. c #AF386B",
"i. c #A11D50",
"p. c #9B414A",
"a. c #8D445A",
"s. c #874659",
"d. c #9C4555",
"f. c #9D455A",
"g. c #9C4B5B",
"h. c #944658",
"j. c #914A50",
"k. c #A3434D",
"l. c #AB424D",
"z. c #A74647",
"x. c #B5464D",
"c. c #BA474C",
"v. c #B5494E",
"b. c #BB494E",
"n. c #BB4745",
"m. c #A44554",
"M. c #AB4553",
"N. c #A54B55",
"B. c #AC4A53",
"V. c #A34B5B",
"C. c #AC4C5B",
"Z. c #A74559",
"A. c #B44C54",
"S. c #BC4C53",
"D. c #B44D5B",
"F. c #BB4D5A",
"G. c #B64557",
"H. c #AC535B",
"J. c #B65255",
"K. c #BA5355",
"L. c #B6525A",
"P. c #BA525B",
"I. c #BF5B5B",
"U. c #894863",
"Y. c #9C4D62",
"T. c #924A66",
"R. c #8B5369",
"E. c #985568",
"W. c #8E5475",
"Q. c #AB4E63",
"!. c #A94766",
"~. c #B44E63",
"^. c #BA4969",
"/. c #A75467",
"(. c #B45165",
"). c #BC5462",
"_. c #B85868",
"`. c #A75874",
"'. c #BA5A74",
"]. c #B14976",
"[. c #9C6276",
"{. c #A56468",
"}. c #A96576",
"|. c #BC6476",
" X c #BE6169",
".X c #C1494E",
"XX c #C14D55",
"oX c #C24E5A",
"OX c #C4495C",
"+X c #C25057",
"@X c #C3535B",
"#X c #C9555E",
"$X c #C45A5D",
"%X c #C9595E",
"&X c #C34A68",
"*X c #C45561",
"=X c #C55A62",
"-X c #CA5B63",
";X c #C55C6A",
":X c #CC5D6B",
">X c #C95567",
",X c #D35C66",
"<X c #D45C69",
"1X c #D65B69",
"2X c #C34B71",
"3X c #C85A76",
"4X c #D45D73",
"5X c #CC6267",
"6X c #CC616B",
"7X c #C66368",
"8X c #D3636C",
"9X c #DB646A",
"0X c #D8676C",
"qX c #C86777",
"wX c #DB6B74",
"eX c #D76673",
"rX c #D77178",
"tX c #CA717F",
"yX c #E16B73",
"uX c #E37279",
"iX c #33328A",
"pX c #4A3989",
"aX c #603E94",
"sX c #6F518F",
"dX c #5D4695",
"fX c #9C3D87",
"gX c #944B94",
"hX c #8F5490",
"jX c #A64C89",
"kX c #AA5687",
"lX c #996395",
"zX c #906791",
"xX c #B46A85",
"cX c #A36A9A",
"vX c #B0718E",
"bX c #9666A4",
"nX c #B577A3",
"mX c #CA6C84",
"MX c #D56B84",
"NX c #C8768B",
"BX c #D47990",
"VX c #C47DA0",
"CX c #BA8499",
"ZX c #B58AA2",
"AX c #D0869A",
"SX c #CD92A6",
"DX c #E68FA4",
"FX c #F0ACBB",
"GX c #DA96A5",
"HX c #ECB8C5",
"JX c #DAB5C6",
"KX c #F6C1CB",
/* pixels */
"                                                                                                                                            ",
"                                                                                                                                            ",
"                                                        K iXiX                                                                              ",
"                                            K K K K ....| | F F J J K iX                                                                    ",
"                                        K F F F F ~ F Q Q F Q F R D D } | pXpX                                                              ",
"                                     . .~ Q F > Q Q j Q Q > > j Y Y E E E ~  .|                                                             ",
"                                .. .~ Q Q j > > : : > > > j j j h Y Y h h T T E  ...                                                        ",
"                              | ~ ~ Q j j j % % % : : : > Q j j g = g h h g T W ^ ~ | pX                                                    ",
"                            | ! ~ Q S j > : % % # # # & : g g g g g g h h k T ^ ^ ^ ~  .pX                                                  ",
"                          L J D S S > > : : # # # * * * , g k g g g g g k h j T T ^ W Q } ..                                                ",
"                        iXL D S > > : : : % # O # + + + # g g g g g g g g g h j T T T E E } ..                                              ",
"                        H D S S > : : : % # # # @ $ @ @ & g g & g 4 g & , 4 9 h j k j E E ! } ..                                            ",
"                      H O.! Z P : : % % * @ 2 i a U m n n z 7 z 6 4 4 4 & , & & 4 g 9 h Z 0 E D ..                                          ",
"                      G A Z S - : % # & * 2 s 9.0.w.0.0.q.q.3.2.,.b z 4 5 4 & * * & 9 = - - Z P ! }                                         ",
"                      G A S ; % % % * * $ 7 -.0.n..X.X.X.XXXXXXXL.M.h.2.N n 6 2 $ & & $ = - - - Z ! X.                                      ",
"                      G A ; ; ; # % * & 5 V >.n.n.n.n..X.X.XXX+X-X-X=X_.H.d.2.N n n l q 0 2 $ - 9 P O.                                      ",
"                      G A ; ; o ; $ 4 6 n =.0.n.n..Xn..X.X.XXX#X%X-X;X5X=X=X*XD.Z.Z.8.8.6.7.7.{ { +.o.pX                                    ",
"                    iXiXA ; - - e 9 0 7 M 3.x.n.n.b..X.X.X.X+X@X$X%X-X-X-X-X%X-X*X*X_.).'.|.|.|.mXxXxXgXaX                                  ",
"                    iXH Z Z e 0 0 e w s f q.x.c..Xb.b.b.K.b.+X$X+X%X-X-X>X%X%X#X$X#X$X=X6XqXMXMXBXBXBXVXbX                                  ",
"                    iX| ! P P 0 q w a N <.q.x.c.b.b.b.b..X+X+X+X$X$X;X-X%X-X*X$X#X$X+X$X=XqXqXtXMXBXBXAXnX                                  ",
"                    pXX.^ W I I w w b B 1.0.x.c.v.b.v.b.S.XX+X+X+X=X-X5X-X>X%X#X#X+X$X#X$X=X;X6XwXMXBXVXVXbX                                ",
"                    dXpX] / / W ( ( N B 3.M.v.v.v.c.v.b.b.S.oX+X@X*X=X;X>X=X=X#XoX+X+X+X+X@X$X7XqXqXmXNXNXcX                                ",
"                    dXo.] ^ / / ( ( _ =.4.m.A.v.v.x.v.v.b.S.XXOX@X*X$X=X*X#X+X+XoXXXoXoXXXXXK.*X7X;XmXmXNXvXbX                              ",
"                    dX#.] ] ` ( ( ( _ ,.4.m.v.G.v.x.v.c.b.b.S.S.F.@X@X*X$X$X+XXXXXXXS.S.b.XXS.S.).;X'.qX|.vXcX                              ",
"                    sX#.$.+.+.{ ' _ _ 9.4.k.v.v.v.x.x.x.v.b.S.S.F.+X@X@X@X+X+XoXS.XXc.b..Xb.S.S.F.P._.'.|.xXcX                              ",
"                    sXW.$.s.s.s.[ 7.6.8.r.M.A.v.v.v.v.x.x.b.S.S.S.F.P.F.F.oXXXoXXXXXb.b.c.b.c.c.c.S.D.L.(.'.vXbX                            ",
"                    zXhXR.s.h.a.a.h.Z.Z.D.G.D.S.v.v.v.c.x.b.S.A.F.A.+X+X+XoXoXXXXXb.b..X.Xb.c.c.v.v.v.A.C./.`.cX                            ",
"                    zXW.E.E.T.g.g.g.V.Q.D.F.A.A.A.v.b.v.x.S.S.D.F.F.@X@X$X#X+XoXXXS.XX.Xb.b.c.c.c.x.G.G.C.(.`.lX                            ",
"                  zXhXE.E.E.g.g.N.N.N.D.D.D.D.A.S.A.b.v.S.P.L._.).=X$X-X>X=X*X#X+XoXXX+XS.S.S.S.G.S.G.D.C.Q.`.hX                            ",
"              jXkXkX`./.Y.Y.g.g.g.N.H.L.L.D.F.D.A.S.A.b.K.P.I.=X7X5X5X5X8XeX:X-X#X+X+X+X+X+XS.oX@XP.L.D.D.C.`.lX                            ",
"            gXy.].^.P.L.C.g.N.g.N.N.H.L.L.F.P.F.S.A.K.J.J.L.H.H._.7X5XrXrXrXeX5X-X-X%X#X$X$X#X$X$X$X=X_._.Q.`.lX                            ",
"          gXy.u.u.F.S.S.A.N.N.N.N.H.J.L.L.P.P.F.P.A.D.B.g.j.s.s.s.h.E._.|.7XqX6X<X:X-X#X-X#X%X-X=X5X5X7X7X'.`.lX                            ",
"          fXu.2X>X&XS.S.J.B.B.B.B.B.D.L.P.P.P.P.D.P.C.8.,._ ( l z z l ` [ 8./.'.7X;X;X>X-X-X-X-X-X-X7X7X7XqXxXcX                            ",
"          fX].4X4X>XG.G.D.J.v.A.D.D.J.P.P.P.P.P.P.C.m.4.7.7.' ( / z q 6 e 8 n [ g.Q._.).*X*X*X=X-X=X X_.}.`.}.lX                            ",
"          jX2X>X^.t.e.t.G.D.A.D.D.D.P.P.L.).P.L.C.M.N.d.6.2.2.' ( n z 6 6 3 3 y B 4.r.Z.F.^.F.D.D.V.s.@.{ { [ sX                            ",
"          jX^.G.r.e.i.t.OXK.D.L.F.L.D.L.P.P.L.L.B.m.8.6.) a 7 6 6 q 6 5 3 q 7 y d =.<.4.r.r.r.8.2.` z & $ e 0 O.                            ",
"          jX~.t.e.e.2X3X6X7XP.P.L.P.L.L.K.L.K.K.A.p.4.m w 3 2 @ & k l k 5 6 x n f M -.-.;.1.<.) n 2 $ * & 2 I O.                            ",
"          jX!.t.t.2XDXDXmX X).L.P.P.P.L.L.P.K.K.A.q.9.,.f a 3 o @ z s.@.z 6 7 y V M -.;.;.,.B n 2 + + @ 2 W ] o.                            ",
"          gXu.&X2XMXFXFXNX X(.(.L.L.P.L.L.K.K.K.J.D.M.m.3.3.C x 8 V j.j.M y t f <.4.q.l.0.1.n 5 + O O g 2 q { sX                            ",
"          gXjX&X2XyXFXHXSX}.(.L.J.C.J.L.L.K.P.K.K.K.K.J.z.z.p.3.:.:.5.1.,.f <.q.0.l.S.+XK.d.V @ . . * ] $.W ] o.                            ",
"            jX].^.3XDXHXGXxX/.H.C.B.A.J.L.J.K.I.$XI.$XI.K.z.>.:.:.1.1.,.<.9.r.M.S.XXoX>X-XB.' 4 + O - { W.#.6.o.                            ",
"              jX'.3XBXHXFXVX`./.Q.H.H.B.A.J.K.@X$X$X$X5XI.K.k.4.:.=.) ,.4.B.P.*X#X#X#X,X8X=X2.q 4 = z { U.T.T.o.                            ",
"                kX3XmXDXKXSX[.R./.H.C.C.A.D.F.$X%X-X5X8X0X7X7XD.r.r.r.Z.@X>X5X-X,X,X1X9X0X5X!._ w w a ' 7.h.T.o.                            ",
"                    ].mXFXJXZX$.Y.V.C.B.B.B.S.+X$X%X%X5X5X0XeX5X3X3X>X<X,X8X8X,X#X9X9X9X0X6X^.8.U s U ,.6.h.T.#.                            ",
"                      !.AXHXZXR.E.N.B.N.B.B.J.K.K.$X-X5X5X8XeXwXeXwXeXeX4X9X,X,X,X1X9X9X9X1X^.!.8.9.<.6.h.h.T.#.                            ",
"                        E.CXCXR.h.g.N.N.N.B.v.v.K.@X$X-X5X6X0XwXwXwXeX4XeX<X,X1X1X9X1X9XyX9X>X(.!.!.8.Z.g.g.R.#.                            ",
"                          E.vX[.E.j.N.N.N.B.B.J.J.J.+X#X-X8X0X0X0X9X:X4X&X@X@X,X,X9X9XyXyXyX8X*X(.'.(.~.H.V.R.                              ",
"                            {.}.E.g.d.N.B.N.B.z.v.D.F.oX#X#X-X-X,X*XF.t.G.t.G.&X#X1X9XyXuXyX0X5X^.^.(.(.(.Q.W.                              ",
"                            !.}.{.j.V.m.N.m.M.M.z.B.A.F.+X#X+X+XoXG.w.0.w.w.OX>X1X1XyXyXuXrXwX3X(.^.~.~.(./.W.                              ",
"                              {.{.j.d.f.m.m.m.m.N.B.B.A.A.A.A.S.x.0.q.0.w.w.t.1X4X1X1X4XwXMXeX;X~.C.D.D.!./.W.                              ",
"                              H.{.g.a.h.h.m.m.N.N.m.M.B.B.B.v.z.0.q.q.l.x.t.0.v.F.F.F.*X>X>X;X).Q.m.M.C.!.W.                                ",
"                                {.E.s.s.h.8.d.d.d.p.m.k.k.k.z.z.5.q.0.x.S.S.G.3.<.=.=.9.8.8.Z.Q.!.m.Z.r.Y.R.                                ",
"                                  {.s.7.7.8.h.5.5.p.p.p.p.p.5.5.q.5.q.l.A.D.C.h._ b a s f _ 7.h.f.f.r.Y.T.                                  ",
"                                  {.E.[ ' 2.4.3.3.3.p.3.3.3.3.>.:.B ,.3.5.8.6.' l 8 6 w w 0 n [ 7.8.8.T.W.                                  ",
"                                    {.$.' ' 2.2.1.:.3.>.>.:.-.n 8 < 6 n ( _ f y 3 < < 2 e o < P / _ 6.T.                                    ",
"                                      E.@.' ' ' ,.,.:.:.-.-.d 1 < X o e i s s y s f ( U w < o o o I { 7.                                    ",
"                                        R.` b b _ B B =.=.M u r 1 < < < < 1 1 r i p U U U ( i e o < W                                       ",
"                                        +.+.l z n V V V V v u u u u d u p p p r r 1 r i i p U I 0 q k                                       ",
"                                          +.] z 8 y V n c c u u *.-.*.;.&.&.%.%.%.p p p i U U U _ /                                         ",
"                                            ` ` q 8 7 c c t t u u *.;.*.*.&.%.%.p %.p %.<.<.9.[ [ `                                         ",
"                                              / l 8 5 7 t x t u u v -.*.*.d i i i r i i U 9.7.s.+.                                          ",
"                                                g 9 5 8 x x u u *.-.*.*.M M y i 1 r 1 ( ( 7.6.s.                                            ",
"                                                  & 4 $ @ 8 c *.*.*.;.;.;.;.=.M f f f _ _ ' 6.+.                                            ",
"                                                      # . X 5 c *.*.;.;.5.5.q.>.;.-.=.,.) [ +.                                              ",
"                                                          O . 5 x V :.:.:.3.3.3.;.-.=.=.,.[ {                                               ",
"                                                              . @ 5 6 z n N B B B B N N b                                                   ",
"                                                                                                                                            ",
"                                                                                                                                            ",
"                                                                                                                                            ",
"                                                                                                                                            "
};
