/* XPM */
static char *_db59440a85c48f6f0a5e165255fa816MSIQkUwoOHJGAKzF[] = {
/* columns rows colors chars-per-pixel */
"70 70 256 2 ",
"   c #BC6B0C",
".  c #B76C2E",
"X  c #BF5E17",
"o  c #D85C16",
"O  c #CD5D10",
"+  c #E95605",
"@  c #EE5919",
"#  c #C96B05",
"$  c #D56D0B",
"%  c #D66905",
"&  c #C47200",
"*  c #CA7303",
"=  c #C97B03",
"-  c #D3730B",
";  c #D97804",
":  c #C86717",
">  c #DC6A14",
",  c #D96718",
"<  c #C87113",
"1  c #DA7519",
"2  c #E66805",
"3  c #E67806",
"4  c #E46B16",
"5  c #E77917",
"6  c #F66E0A",
"7  c #C75C22",
"8  c #C86826",
"9  c #D76923",
"0  c #C77828",
"q  c #D17231",
"w  c #EE7126",
"e  c #F65C26",
"r  c #D07D47",
"t  c #E17D46",
"y  c #B87D5D",
"u  c #BD833B",
"i  c #BE8200",
"p  c #D98807",
"a  c #DC9304",
"s  c #DA950B",
"d  c #DC9C0B",
"f  c #D99606",
"g  c #DB9716",
"h  c #CE8711",
"j  c #EA8D0B",
"k  c #E58908",
"l  c #F7890A",
"z  c #E29505",
"x  c #EC9503",
"c  c #E4940C",
"v  c #EB940D",
"b  c #E39B0C",
"n  c #ED9A0D",
"m  c #EB9C05",
"M  c #F2940C",
"N  c #F49B0C",
"B  c #F59906",
"V  c #EC8B13",
"C  c #E98817",
"Z  c #FD8C14",
"A  c #F58918",
"S  c #E59515",
"D  c #EC9612",
"F  c #E59C12",
"G  c #EC9B13",
"H  c #E6981B",
"J  c #F39412",
"K  c #F39B13",
"L  c #F89716",
"P  c #DDA408",
"I  c #DBA114",
"U  c #DBA21B",
"Y  c #E4A20C",
"T  c #E9A50A",
"R  c #F5A30C",
"E  c #FBA30C",
"W  c #F6A805",
"Q  c #E8A717",
"!  c #F3A414",
"~  c #FBA413",
"^  c #F3AB14",
"/  c #FCAB15",
"(  c #F4A41B",
")  c #FCAC1C",
"_  c #F6A91A",
"`  c #EBB81C",
"'  c #F3B51C",
"]  c #F7B618",
"[  c #F7B20B",
"{  c #DB9828",
"}  c #D38B31",
"|  c #E79A24",
" . c #E88D2D",
".. c #DAAD30",
"X. c #E8A825",
"o. c #F6AA24",
"O. c #EAB629",
"+. c #F4B424",
"@. c #F4BB23",
"#. c #F5BB2C",
"$. c #F8B729",
"%. c #E5A837",
"&. c #E6B738",
"*. c #F6B934",
"=. c #EBC31D",
"-. c #F4C31C",
";. c #DDC424",
":. c #EBC728",
">. c #F4CD2C",
",. c #FBCC2B",
"<. c #F8C527",
"1. c #F5D32C",
"2. c #F8D72C",
"3. c #EEC534",
"4. c #EBC738",
"5. c #FCC332",
"6. c #F4CD33",
"7. c #FDCB34",
"8. c #F2C63C",
"9. c #FDC53A",
"0. c #FDCC3C",
"q. c #F2C838",
"w. c #ECD636",
"e. c #F5D434",
"r. c #FCD434",
"t. c #F4DC34",
"y. c #FADB34",
"u. c #F5D53B",
"i. c #FCD53B",
"p. c #F5DC3B",
"a. c #FBDB3C",
"s. c #ECD32A",
"d. c #F5E23B",
"f. c #FAE13C",
"g. c #F7E436",
"h. c #EDE231",
"j. c #DC8342",
"k. c #DC9557",
"l. c #E6954E",
"z. c #E8AC45",
"x. c #FABB47",
"c. c #EBB352",
"v. c #D79B69",
"b. c #EA966A",
"n. c #D7A772",
"m. c #FCBA66",
"M. c #FCB878",
"N. c #ECAD73",
"B. c #DEAD4B",
"V. c #DDD156",
"C. c #EAC846",
"Z. c #F8CA44",
"A. c #ECD748",
"S. c #F4D444",
"D. c #FCD443",
"F. c #F5DC43",
"G. c #FBDB43",
"H. c #F3D64C",
"J. c #F4DC4B",
"K. c #FDDB4C",
"L. c #FED44C",
"P. c #E9C754",
"I. c #F8C959",
"U. c #EADA59",
"Y. c #F3DD53",
"T. c #FCDD53",
"R. c #FDDD5B",
"E. c #FAD656",
"W. c #EEE84B",
"Q. c #F5E245",
"!. c #FAE145",
"~. c #F4E34C",
"^. c #FBE34C",
"/. c #FDE84E",
"(. c #F4EA4D",
"). c #EDE858",
"_. c #F5E454",
"`. c #FCE453",
"'. c #F3E955",
"]. c #FDE955",
"[. c #F4E45B",
"{. c #FBE45B",
"}. c #F3EA5C",
"|. c #FCE95C",
" X c #FAF15B",
".X c #EADA65",
"XX c #F9D867",
"oX c #FFCC75",
"OX c #ECDB79",
"+X c #F8DA79",
"@X c #F2C86A",
"#X c #ECE566",
"$X c #F5E563",
"%X c #FBE664",
"&X c #F5E964",
"*X c #FCEA63",
"=X c #F5E56B",
"-X c #FBE56B",
";X c #F5E96B",
":X c #FAEA6A",
">X c #EDE37D",
",X c #EEE574",
"<X c #F4E473",
"1X c #F8E776",
"2X c #F7F06F",
"3X c #D7B489",
"4X c #E9AD87",
"5X c #F7BA90",
"6X c #EBBBA4",
"7X c #ECDD85",
"8X c #FCDA85",
"9X c #FDD695",
"0X c #F8CD93",
"qX c #EBE487",
"wX c #FBE887",
"eX c #FBEB98",
"rX c #FAF398",
"tX c #F2EC90",
"yX c #FED6A7",
"uX c #FFD7B5",
"iX c #F9ECA8",
"pX c #FDF3A3",
"aX c #FEF4AC",
"sX c #FFFAA9",
"dX c #FDEAB7",
"fX c #FFFBB4",
"gX c #FEF5B8",
"hX c #DCC5A6",
"jX c #FFE9C7",
"kX c #FFFDC3",
"lX c #FFF4CB",
"zX c #FFFCCC",
"xX c #FDF3C3",
"cX c #FEECDA",
"vX c #FFF3D4",
"bX c #FFFCD5",
"nX c #FEF4DC",
"mX c #FEFCDB",
"MX c #F5FCD8",
"NX c #EAF9DA",
"BX c #FFEDE3",
"VX c #FFEDE9",
"CX c #FEF4E3",
"ZX c #F5FDE4",
"AX c #FDFBE4",
"SX c #FEF5EB",
"DX c #FDFBEC",
"FX c #F5FAEA",
"GX c #FFEDFA",
"HX c #FFF5F3",
"JX c #FDFBF3",
"KX c #FFF3FC",
"LX c #FEFDFC",
"PX c #F5F9F5",
"IX c #EDF5E8",
"UX c #FBDFD3",
/* pixels */
"9 , % % O + + + + @ e o o 1 - p 3 k 3 3 3 V A A C V J J v x x x v v j V V C 5 A A C 5 A L | L G K G ( K K ~ ! E W W [ W [ [ W [ ^ T a x x x ",
", O > % % 2 % + + @ e o 4 5 - p ; ; 3 k 3 k C C V D D D v n m x x j j j V V C C C V C C L L G G G G ! K ! ! ! R W W W [ [ [ [ ' ' ^ z B B x ",
"% % > $ 7 o X 7 o O : % % p ; p * ; ; p k p C S S C S S S F c c c z z k k k k k k p k x F T T m T Q Q Q Q ^ T ^ [ [ [ ` ' X.O.X.X.X.g S x k ",
"O % : X . . . . 0   # & & ; = = p p p h p g g g g g g g g g g s s f a s s a a k a f f f f P d P I P P I P Q Y T T Q Q U U %.&.z.z.%.h g S j ",
"3 3 1 q n.6X5X4Xn...U P Y ^ ! _ X.O.$.$.O.#.#.*.*.#.*.*.*.*.*.*.#.#.#.+.+.+.+.+.' +.' ` @.-.` =.:.@.<.:.#.<.<.<.@.O.O.&.c.XX8X8X8Xm.} { | g ",
"l l w k.yXSXnXzXeXP.w.2.<.,.0.D.L.L.E.L.L.K.D.G.G.K.K.K.K.L.E.L.L.K.L.L.L.D.D.G.G.D.G.a.a.a.G.a.a.y.a.a.a.a.a.a.y.:.4.P.P.wXaXaXaX8X} } | H ",
"k k C r 5XcXvXkXwXC.;.=.` -.5.9.Z.S.S.D.D.u.i.p.i.i.i.i.u.u.D.D.S.D.D.D.0.D.D.D.u.D.S.D.S.u.S.u.e.e.e.e.e.r.e.r.e.:...4.c.8XaXiXaXoX} } { g ",
"l x h } 0XvXdXfXtX..;.=.=.<.0.D.C.C.S.J.S.a.p.g.y.p.y.t.p.r.i.G.D.D.D.S.S.D.S.D.S.S.S.J.S.S.S.K.F.u.p.p.p.p.y.y.e.;.4.C.P.wXfXaXfXoX..} g C ",
"x k C } m.eX8XwXY.w.:.>.>.6.Z.L.H.H.J.J.^.!.Q.d.t.g.y.g.y.g.y.p.a.p.G.p.G.p.S.J.u.A.S.J.K.J.T.J.J.F.F.a.p.y.y.r.>.s.:.4.P.XXwXwX1XI.| g S S ",
"N n S g %.c.z.&.Z.8.q.6.D.T.{.*X|.|.%X].`.Q.Q.w.f.f.d.f.d.f.d.d.f.!.f.!.J.F.J.Q.J.T.J.K.J.J.J.J.G.F.G.S.a.i.y.y.1.1.e.6.C.C.P.c.I.%.h g n n ",
"j v G g X.9.3.9.8.Z.0.8.L.{.*X*X|.*X*X*X|.{._.J._.~.Q.~.~.Q.Q.Q.Q.d.Q.Q.Q.~.~._.J.~.~.J.G.!.f.a.G.F.J.G.S.i.r.2.1.1.2.r.u.4.&.&.*.X.f z n x ",
"n v G d _ #.O.@.5.i.D.Z.H.{.%XXX[.|.|.*X*X%XXX[..XU.#XU.U.).U.).~.W.~.W.).U.U.Y.U.U.H.J.F.G.g.y.a.G.G.G.i.p.p.r.2.2.2.,.3.:.3.4.>.Q b z m x ",
"v v c f X.7.:.O.3.u.S.S.H.-X:X&X&X}.2X;X=X<X>XOX>XqXOX7XOX>X>XOX,X#X,X,X,X7XOXqX+X,X{.Y.J.F.p.f.p.p.F.F.i.D.i.r.y.2.1.1.:.:.:.3.5.Q f z x x ",
"M x s d 9.|.`.`.H._.`._.Y.%X:X&X}.2X2X;X>XwXeXpXaXdXgXgXgXaXaXaXpXsXsXaXgXgXgXdXaXpXrX1XR.F.p.p.p.d.p.F.F.D.G.u.r.2.2.y.y.2.e.e.i.] T z x x ",
"E n F U C.*X[.).}. X X X}.}.&X&X}.}.;X,XwXrXfXzXbXbXbXmXmXmXmXbXbXbXmXAXAXAXSXmXbXzXfXeXXXU.A.p.d.h.t.p.F.J.G.G.u.y.y.a.f.a.a.a.G.<.Y z n n ",
"M n F g Z.:X&X;X#X).}. X|.}.}.&X X&X,XqX7XiXxXmXnXCXCXcXCXCXnXMXmXnXCXCXBXBXCXBXCXmXkXpXOXU.H.J.w.w.t.p.p.F.F.G.G.a.y.y.r.y.y.a.i.' f a n v ",
"M n F U C.*X%X%X&X[.&X*X*X|.|. X'.#XqXtXhXdXvXDXPXLXCXCXCXSXFXZXmXmXAXAXCXMXvXCXCXAXzXiXOXU.U.T.Q.d.t.Q.d.s.h.p.p.p.i.i.i.a.r.y.i.@.b z v v ",
"K v F U 8.|.{.%X*X&X&X*X*X_.'.'.(.2XrXdXgXdXnXSXPXIXhX3X4X4X6X3X3Xn.4X4X4XN.4XuXCXDXMXkXiXtXwX1XS.w.w.h.h.h.h.d.y.a.i.i.r.r.r.r.i.' d z n n ",
"M v F g 8.|.[.%X%X*X*X*X|._._.`.).2XfXzXkXlXbXCXAXvXv.. 7 o 7   - < 8 7 9 8 . 4XCXHXPXIXMXzXbXfX%XG.p.d.h.t.h.y.e.r.u.i.r.r.r.r.r.@.Y z D D ",
"M v b I 8.|._.[.}.{.*X*X|._._.{.[.wXkXmXvXzXmXmXmXgXk.: 4 6 6 + 2 2 + o w 9 q 0XSXHXPXPXFXFXDXzXXXZ.i.w.e.g.s.p.t.u.i.i.r.r.2.2.i.' I b G D ",
"N v b I 3.{._.`.}.{.|.|.]._.~.[..XeXbXAXnXAXAXAXDXlXk.$ 6 6 6 2 2 2 > , 4 : 8 5XCXHXHXPXFXZXDXvXoXL.T.D.p.f.w.t.e.e.u.r.e.2.1.2.r.+.Y z G K ",
"N M b I 3.{._._._._.{.].`.~.J.)..XeXbXDXMXDXLXLXJXnXk.# + + 2 6 k p C 1  .1 } N.vXVXHXHXSXDXHXnXM.x.0.O.6.G.>.p.p.u.i.i.i.t.t.y.r.@.b z D D ",
"N n F I 6.].^.`._.~._.`.^.F.w.V.V.iXbXDXCXJXLXKXKXBXv.: 4 6 | E.G.S.E.E.E.E.@XrXlXCXHXJXSXHXKXBX} # * h Q ^.a.!.p.i.i.p.t.t.t.2.i.' d c D n ",
"N n Y I 3.].^.'._.~./._.J.w.w.C.V.tXzXDXCXHXLXGXKXSXb.. , $ g T.!.w.K.J.J.Y.#XwXzXAXSXHXDXHXHXcXl.# #   U ].a.G.a.p.a.p.t.t.t.y.y.+.d a c v ",
"K v b I 3./.!.Q.].^.^.^.Q.S.w.w.4.1XkXnXmXCXHXGXGXcXb.7 , - g K.a.d.J.A.~.A.).rXkXmXZXFXAXFXJXnXj., - & X.T.a.!.p.u.a.p.p.g.y.t.a.$.Y z G v ",
"K v b I 3./.Q.~.(.Q.Q./.!.F.u.S.C.1XgXvXnXmXVXHXHXcXb.X , % { ^.a.f.J.J.~.U.).tXkXmXZXZXZXZXFXvXj., $ & X.`.a.G.p.p.a.p.p.y.t.2.a.@.Y c n v ",
"K G Y I 3./.Q.(.~.Q.Q.^.!.p.S.J.P.eXlXCXAXDXDXJXHXCXv.: 4 % C T.G.a.D.H.T.Y.#XtXkXnXSXCXmXmXZXvXj.> $ & X.^.G.f.p.p.p.p.t.t.2.t.i.' d z c v ",
"K S F d 3.`.Q./.Q.F.F.G.G.G.F.T.U.eXbXFXZXIXIXPXSXnXk.O 4 % S E.i.a.S.K.Y.U..XeXbXCXSXHXDXAXDXvXt 4 $ # X.^.a.f.!.p.d.p.y.e.1.1.r.' d a v j ",
"K S F I 4.`.Q.Q.Q.F.F.G.G.F.G.Y..XeXMXFXZXNXIXFXDXvXk.O 4 % g T.y.g.d.J.W.U..XaXnXHXGXGXKXGXGXVXt > $ & U ].g.f.p.g.p.p.e.e.1.>.r.' d a v v ",
"L D Y g 3./.!.Q.Q.Q.F.!.G.G.G.T.U.tXkXmXbXbXvXCXnXjXl., 4 % | L.y.h.F.A.U.V.OXiXSXGXGXGXKXKXKXBXt , $ & X.^.p.f.d.d.p.u.e.e.>.>.7.' d z n v ",
"| H H U 3./.!.~.Q.F.F.K.G.G.S.G.S.{.wXiXpXeX0X5X5X4Xw 6 2 % I H.w.A..X,XwXqXtXdXSXKXKXKXSXAXDXvXj., - & Q ].p.d.h.p.p.t.r.6.1.>.r.' d s c v ",
"L G F I 3.].!.^.~.Q.!.Q.!.F.a.p.a.J.P.P.I.B.0 7 7 9 + 6 + # Q H.P.U..XrXfXkXzXIXJXKXHXJXAXZXCXvX} , - & X./.a.d.t.g.t.y.e.r.>.,.7.' f a v v ",
"J D F d 3.].^.^.W.J.F.F.G.p.p.F.`.S.4.0.i.*.1 $ 1 , % 2 % * S E.A.P.@XgXMXcXcXPXVXSXSXAXFXSXGXBXt w - # X.E.K.a.g.t.h.2.2.2.-.,.r.` f a c v ",
"K F F I 3.`._._.J.J.Q.G.F.g.p.F.Y.C.w.>.,.` = # $ % % % ; & | I.C.V.@XdXnXSXHXJXSXSXmXnXmXcXVXUXq 1 < # o.E.D.a.g.t.2.2.y.2.2.,.7.` d s v c ",
"M n F I q.].~._.~.~.~.Q.!.d.d.F.Y.A.p.y.r.#.p h - ; - ; ; = { @X.X>X7XxXnXJXSXUXUXUXdXdXdXlXjXuXq > $ * X.E.D.a.e.1.2.2.,.,.-.<.,.^ a a z k ",
"G n F I 3.{._.~.~._.^.Q.!.!.d.F.'.J./.f.!.D.*.*.x.x.*.9.Z.x.XXsXrXsXdXnXCXJXVXhXy r u j.u u r r 5 $ # # | D.0.e.1.s.s.1.,.-.-.-.<.Q a p k k ",
"K n F I 3.{._._._._._.^.^.!.G.Q.J.W._.Q./.K.Z.E.Z.Z.7.0.L.P.+XfXkXzXmXCXSXJXnX3X. 8 q , < < : 1 1 1 - = Q Z.9.6.1.>.>.>.,.-.@.<.<._ a p k k ",
"K v Y g 3.`.T._._._._._.`.Q.!.p.A.W.(././.`.8.Z.9.0.,.7.C.V.7XgXbXCXDXCXFXDXnXv.8 9 4 4 ; = - ; # * & = H Z.0.i.6.>.:.>.<.<.@.$.5.Q p k k k ",
"K G F I 8.`.J._.'._.`.`._.^.F.J.A.W. X(.]._.C.Z.6.2.s.s.A.V.7XkXZXIXLXPXPXDXZXn.8 4 2 2 * * #   * # &   U 0.3.e.e.s.6.6.6.<.<.#.5.Q a p k k ",
"K G F I 4.`.Y.[.[._.[.`._.J.W.A.F.~./.Q._.{.A.J.G.f.2.t.U.V.tXbXJXIXLXPXPXFXbXn.8 4 6 6 ( $.*.*.*.*.O.X.8.`.G.G.F.u.i.a.i.6.7.7.9.' c c V l ",
"N D F I 8.{.Y.Y.[.[.{.|._._.W.A.~.J.^._._.[.R.`.^.a.g.f.(.#XeXbXSXPXLXKXJXmXbXv.8 4 2 A R.T.{.R.R.R.{.`.`./././.^.!.F.F.G.G.a.D.G.#.s c D V ",
"K n F I q.|.Y.[.[.[.[.{.[.Y.Y.J.J._.~.^._._.Y.T.^.f.g.f._.#XrXzXAXSXHXcXCXbXkXn.: , o C XX{.{.{.{.R.`.`.`.`.]./.(.Q.d.Q.!.G.G.G.K.#.s S H j ",
"N G F U 8.{.R.).U.[.&X{.[.Y.U.A.Y.Y._.~.~._.[.T.^.G.g.!.~..XwXfXlXnXZXvXbXzXdXN.7 , $ C *X%X#X}.`.`._._._.].(.~.(.Q.Q.F.F.F.i.G.G.5.s s G S ",
"J M F Y 8.|.Y.[.[.&X%X%X$X[.[.[.{.R._.~._._.[.[.{.^.!.!._.#XwXrXgXgXgXyX9X9X0Xl., > : { ;X}.#X#X[._.~.'._.~.'.~.Q.~.F.Q.F.F.u.i.D.#.h s C k ",
"L v G I q.|.R.[.&X$X;X:X%X&X&X*X&X&X X(.W.(.}.}.R.[.`.`.`.[.<XwXqX7X@Xu . . 0 : , 4 - { %X).).}.).'.'.'.'._.'./.~.~.F.G.F.p.e.u.0.X.p p k p ",
"N G F I 8.%XR.&X&X%X;X*X-X&X%X:X;X}. X(.(.(.}.&X%X|.{.`.{.[.&X,X1X1XoX0   < 1 1 4 2 - h {.).'.'.'.).'.'.'.'._.].~.F.F.G.p.u.e.6.0.o.p p C ; ",
"N J Y U 8.|.[.&X$X;X;X:X;X%X;X:X2X;X).W.W.W.}.&X=XXX%X[.|.|.&X).Y.R.I.h * $ 4 2 2 2 % s `.~.(.W.'.).}._.`._.`.`.^.J.S.G.i.e.6.q.0.o.p p k 3 ",
"L v S Q 8.{.[.[.%X;X;X-X;X;X;X:X;X;X X).W.).&X&X=X=XR.[.[.$X;X,X1X1XoXh   < < - % ; & s K.Q.~.~.}.[.}.`.`.^./.^.!.G.a.G.a.2.,.5.9.o.; k C 3 ",
"L D G g q.].`.}.%X;X:X-X-X-X*X*X&X&X&X&X;X;X:X:X*X{.%X;X,XqXrXfXgXdXxXuXgXiXeXqXI.Z.Z.G.J.{.&XU.#XU.Y.E.i.,.,.r.,.:.:.@.-.' [ [ $.n p ; 3 3 ",
"L D G U 8.].{.&X=X:X=X-X-X-X%X%X}.}.&X;X=X1X-X*X*X|.&X;XqXqXiXMXCXcXDXNXZXNXfXrX1X%X`.`.`.Y.#XU.U.U.A.D.r.-.-.-.-.=.` ` ` [ W E ) J 3 ; 3 5 ",
"N n Q I 4.%X[.=X<X1X<X<X-X%X%X{.}.&X=X=X-X-X-X-X*X|.&X;XqXqXiXzXCXVXLXFXJXmXzXpXOXXXT.T.K.`.{.&X#XY.H.D.r.<.<.,.<.@.@.O.$.] / / o.M ; 3 5 > ",
"B n F I Z.*X-X<X<X<X<X<X=X[.}.}.}.&X&X=X1X+X-X:X*X}.;X;XqXqXiXzXCXPXLXPXPXZXmX9X8X-XR.L.^.`.~.[._.K.G.a.r.<.<.,.<.$.#.$.$.o.) ) ) D ; ; 5 3 ",
"W x T I Z.:X-X<X<X<X<X=X&X&X}.'.}.#X;X=X1X-X-X-X:X&X#X<X>XqXiXkXFXPXLXLXHXVXmX3XB.z.%.o.i.G.S.p.w.6.1.>.<.] ] @.+.X.X.o.) ( L ~ ~ j 3 3 5 4 ",
"W B Y U Z.-XXX1X>X<X<X=X$X}.}.'.).&X&X=X=X<X-X;X*X&X;X2XqXqXiXzXZXPXLXPXHXcXnX4X. : # h *.a.e.t.:.:.:.-.` [ ^ _ _ ( H G K K N L ~ j ; 3 6 3 ",
"B W R Y 8.*XXX-X=X=X%XXX[.[._.[.}.&X$X=X=X=X=X-X:X=X;X<X,XqXrXfXMXZXIXAXVXcXcXb.q 9 - S 7.a.s.s.=.=.=.-.' [ ^ _ _ ! K ! K N N N ~ k ; 2 3 4 ",
"B B n Y 9.%X{.{.[.T.`._.{.{.[.[.}.[.#X&X=X-X-X;X:X%X=X;X,XqXrXfXkXzXvXmXcXcXjXb.7 9 $ k 9.y.>.s.=.-.-.-.] ^ ^ ) ! K N K ~ E B N N k 3 3 3 2 ",
"B N K Q 5.L.G./.G.!.G.F.T.[.R.*X[.[.[.&X%X-X$X%X%X=X=X=X<X1XrXrXsXiXkXyXyXyX0Xb.9 4 $ C *.7.=.s.-.-.-.] ] / / ) N ~ E B E E T B K j ; 3 3 2 ",
"L L K F O.8.3.:.>.2.s.1.D.K.E.R.[._.[.[.[.&X*X$X%X%X%X=X=X=X<X1X>XOXOX. . q q @ o > % p *.,.=.:.[ ] ^ ] ] ^ R ~ E E E B E R T ^ K D ; 3 3 2 ",
"L ~ K H X.8.O.:.:.>.1.,.i.L.R.E._._._.}.|.{.[.{.[.*X*X*X=XXXXX.X-X-XXXh < < w , 4 3 # p $.7.` ` ` [ / ] _ ! ! E E E B E ! ( ( o.X. .; ; 3 2 ",
"L ~ X.| %.Z.&.&.3.6.r.2.r.K.{.R.`._.].].].].].|._.[.|.%X%X[.[.R.L.R.I.h < - % $ % * # p $.7.:.-.] ^ ] o.' _ ~ / / E E / _ X.X.{ |  .- 3 3 2 ",
"R T Q { z.I.c.C.Z.w.u.s.3.a.`.S.J.Q./.^././._.`.T._.R.[.{.`.`.`.L.T.Z.i = & & * = * = s +.<.@.-.[ / ) ] ) _ ! / / N L ( | %.z.l.c. .: 1 5 3 ",
"T z g ..@X8X+XwXXXz.4.3.:.1.f.u.F.p.G.!.!.Q.Q.Q._.T.J.J.J.K.G.J.`.T.L.O.@.#.$.$.o.o.X.' +.$.] ^ R ~ / ! ! G G ! L M K H { M.9X9X0Xc.8 - 3 ; ",
"P P U B.8XfXgXfXwXc.4.4.:.s.f.y.p.p.p.p.p.d.!.Q.J.J.S.J.H.F.u.u.S.4.K.0.D.a.D.0.D.0.i.9.$.] ) / R E ! ! Q c n v J j C  .l.9XkXxXdX5X0 : > % ",
"P P I ..oXgXaXiXtXP.&.4.=.>.f.y.y.p.p.p.p.a.a.G.S.S.S.L.K.G.i.u.Y.4.L.D.0.9.0.7.5.9.0.7._ ! ] ] R N R ! ! m v K M D  . .} 0XjXdXdXM.0 : 1 $ ",
"T P U %.oXrXfXsXwXI.Z.4.3.r.a.y.a.a.G.a.a.G.G.G.G.D.K.D.K.G.D.D.D.D.D.D.Z.0.D.0.D.0.0.*.$.$.o.o.~ ~ R R R B B n j J C } l.8XdXdXiXm.q $ > $ ",
"T ^ g %.c.oXoXXXI.&.X.O.` ' $.@.<.#.<.#.#.3.5.5.5.#.#.*.5.#.#.#.#.@.$.$.$.$.$.$.o.o.$.o.( ( ( ( K N N B B x B x j D H  . .l.5XM.m. .1 1 5 5 ",
"T T Q X.%.z.z.%.%.U I Q Y T T Y d d d d d d d d d d s d d d c s s s s s s s s s F G K G J D J J L J Z B l B B l M J C 5  . .j. . .C w 5 5 A ",
"W [ _ Q | %.| X.U g P Q Y m b b d b F b F F F n F F G F G G F c c c c c c c s c D D K J M J M L J J Z M M B l l l l A A A A w C w  .C 5 5 5 ",
"W R ! ! G X.X.G Q b T R R m N N n ! G G G K K G G K K K L K J S v D v D D v D v K K L L Z Z Z Z A L A Z Z Z Z Z Z l l Z Z A A A A A A 5 5 A ",
"E W B N ( _ ( ( ^ m m W m x R N x v v n v v v v v v V J D D j j j j j j j j j j J K K Z M Z L Z A A A Z Z Z Z Z Z 6 l l l l Z Z w 5 C 6 A 5 "
};
